<?xml version="1.0" encoding="UTF-8" standalone="no"?>
<svg
   xml:space="preserve"
   viewBox="0 0 1548 866"
   version="1.1"
   id="svg137"
   sodipodi:docname="sketch cpc b.svg"
   inkscape:version="1.4.2 (f4327f4, 2025-05-13)"
   xmlns:inkscape="http://www.inkscape.org/namespaces/inkscape"
   xmlns:sodipodi="http://sodipodi.sourceforge.net/DTD/sodipodi-0.dtd"
   xmlns="http://www.w3.org/2000/svg"
   xmlns:svg="http://www.w3.org/2000/svg"><sodipodi:namedview
     id="namedview137"
     pagecolor="#505050"
     bordercolor="#eeeeee"
     borderopacity="1"
     inkscape:showpageshadow="0"
     inkscape:pageopacity="0"
     inkscape:pagecheckerboard="0"
     inkscape:deskcolor="#505050"
     showgrid="false"
     inkscape:zoom="0.5503876"
     inkscape:cx="821.23944"
     inkscape:cy="555.06338"
     inkscape:window-width="1920"
     inkscape:window-height="1009"
     inkscape:window-x="-8"
     inkscape:window-y="262"
     inkscape:window-maximized="1"
     inkscape:current-layer="svg137" /><defs
     id="defs1"><style
       id="style1">.f0 { fill:#fff }
.f1 { fill:#ccc }
.f2 { fill:#e6e6e6 }
</style></defs><g
     id="costado"><path
       id="path1"
       class="f2"
       d="M 924.513 1.6375 L 924.513 88.4125 L 1081.49 129.363 L 1078.56 46.4875 Z"
       style="stroke-width:0.975" /><path
       d="M 1082.34 47.55 L 1220.79 88.5 L 1225.66 168.45 L 1085.26 130.425 Z"
       class="f1"
       id="path2"
       style="stroke-width:0.975" /><path
       d="M 1224.21 89.45 L 1349.99 126.5 L 1357.79 202.55 L 1229.09 169.4 Z"
       class="f2"
       id="path3"
       style="stroke-width:0.975" /><path
       d="M 1353.09 127.375 L 1468.14 160.525 L 1476.91 234.625 L 1360.89 203.425 Z"
       class="f1"
       id="path4"
       style="stroke-width:0.975" /><path
       id="path5"
       class="f0"
       d="M 924.55 90.625 L 924.55 180.55 L 1084.45 217.375 L 1081.53 131.575 Z"
       style="stroke-width:0.975" /><path
       d="M 1085.38 132.537 L 1225.78 170.562 L 1231.62 252.463 L 1088.3 218.338 Z"
       class="f1"
       id="path6"
       style="stroke-width:0.975" /><path
       d="M 1229.24 171.45 L 1357.94 204.6 L 1364.76 284.55 L 1235.09 253.35 Z"
       class="f0"
       id="path7"
       style="stroke-width:0.975" /><path
       d="M 1361.1 205.375 L 1477.12 236.575 L 1485.9 312.625 L 1367.93 285.325 Z"
       class="f2"
       id="path8"
       style="stroke-width:0.975" /><path
       id="path9"
       class="f2"
       d="M 924.587 182.865 L 924.587 277.413 L 1087.41 310.365 L 1084.49 219.69 Z"
       style="stroke-width:0.975" /><path
       d="M 1088.41 220.537 L 1231.74 254.662 L 1237.59 340.462 L 1091.34 311.212 Z"
       class="f0"
       id="path10"
       style="stroke-width:0.975" /><path
       d="M 1235.28 255.45 L 1364.95 286.65 L 1373.73 368.55 L 1241.13 341.25 Z"
       class="f1"
       id="path11"
       style="stroke-width:0.975" /><path
       d="M 1368.14 287.363 L 1486.11 314.663 L 1495.86 393.638 L 1376.91 369.263 Z"
       class="f1"
       id="path12"
       style="stroke-width:0.975" /><path
       id="path13"
       class="f1"
       d="M 924.625 279.826 L 924.625 378.432 L 1090.38 406.378 L 1087.45 312.778 Z"
       style="stroke-width:0.975" /><path
       d="M 1091.45 313.525 L 1237.7 342.775 L 1243.55 432.475 L 1094.38 407.125 Z"
       class="f1"
       id="path14"
       style="stroke-width:0.975" /><path
       d="M 1241.3 343.45 L 1373.9 370.75 L 1381.7 456.55 L 1247.15 433.15 Z"
       class="f0"
       id="path15"
       style="stroke-width:0.975" /><path
       d="M 1377.16 371.363 L 1496.11 395.738 L 1506.84 477.638 L 1384.96 457.163 Z"
       class="f1"
       id="path16"
       style="stroke-width:0.975" /><path
       id="path17"
       class="f0"
       d="M 924.663 380.946 L 924.663 483.258 L 1093.34 506.392 L 1090.41 408.892 Z"
       style="stroke-width:0.975" /><path
       d="M 1094.5 409.512 L 1243.67 434.863 L 1250.5 527.487 L 1097.42 507.012 Z"
       class="f1"
       id="path18"
       style="stroke-width:0.975" /><path
       d="M 1247.34 435.438 L 1381.89 458.837 L 1390.66 547.562 L 1254.16 528.062 Z"
       class="f1"
       id="path19"
       style="stroke-width:0.975" /><path
       d="M 1385.19 459.363 L 1507.06 479.838 L 1516.81 565.638 L 1393.96 548.088 Z"
       class="f2"
       id="path20"
       style="stroke-width:0.975" /><path
       id="path21"
       class="f1"
       d="M 924.712 485.883 L 924.712 594.134 L 1097.29 611.391 L 1093.39 509.016 Z"
       style="stroke-width:0.975" /><path
       d="M 1097.54 509.512 L 1250.61 529.987 L 1256.46 627.487 L 1101.44 611.887 Z"
       class="f0"
       id="path22"
       style="stroke-width:0.975" /><path
       d="M 1254.36 530.438 L 1390.86 549.938 L 1399.64 642.562 L 1260.21 627.938 Z"
       class="f2"
       id="path23"
       style="stroke-width:0.975" /><path
       d="M 1394.21 550.35 L 1517.06 567.9 L 1527.79 655.65 L 1402.99 642.975 Z"
       class="f1"
       id="path24"
       style="stroke-width:0.975" /><path
       id="path25"
       class="f2"
       d="M 924.75 596.897 L 924.75 709.896 L 1100.25 721.404 L 1097.33 614.154 Z"
       style="stroke-width:0.975" /><path
       d="M 1101.58 614.5 L 1256.6 630.1 L 1263.43 731.5 L 1104.5 721.75 Z"
       class="f2"
       id="path26"
       style="stroke-width:0.975" /><path
       d="M 1260.4 630.425 L 1399.83 645.05 L 1408.6 741.575 L 1267.23 731.825 Z"
       class="f0"
       id="path27"
       style="stroke-width:0.975" /><path
       d="M 1403.25 645.337 L 1528.05 658.012 L 1539.75 749.662 L 1412.03 741.862 Z"
       class="f2"
       id="path28"
       style="stroke-width:0.975" /><path
       id="path29"
       class="f1"
       d="M 924.788 712.432 L 924.788 805.842 C 985.807 805.882 1044.98 806.856 1103.21 808.765 L 1100.29 723.94 Z"
       style="stroke-width:0.975" /><path
       d="M 1104.6 724.163 L 1263.52 733.913 L 1268.4 814.837 C 1216.72 812.887 1162.12 809.962 1107.52 808.987 Z"
       class="f1"
       id="path30"
       style="stroke-width:0.975" /><path
       d="M 1267.41 734.163 L 1408.79 743.913 L 1416.59 824.837 L 1272.29 815.087 Z"
       class="f2"
       id="path31"
       style="stroke-width:0.975" /><path
       d="M 1412.28 744.2 L 1540 752 L 1550.72 837.8 L 1509.77 833.9 L 1420.07 825.125 Z"
       class="f1"
       id="path32"
       style="stroke-width:0.975" /></g><g
     id="frente"><path
       d="M 0,866 31,687 61,512 176,465 325,403 537,259 705,145 918,0 V 807.00195 L 848,807 l 3,-181 3,-176 3,-168 3,-163 C 679.10637,229.42322 498.77074,340.75797 319,453 241.92565,481.46655 164.92539,510.13332 88,539 L 69,546 42,705 16,863 Z"
       class="f0"
       id="path33"
       style="" /><path
       d="m 57,623 17,-4 13,-75 -17,6 z"
       class="f1"
       id="path34" /><path
       d="m 73,623 -16,5 -13,75 17,-3 z"
       class="f1"
       id="path35" /><path
       d="m 88,543 -12,75 17,-5 12,-76 z"
       class="f1"
       id="path36" /><path
       d="m 60,704 -17,4 -13,78 17,-2 z"
       class="f1"
       id="path37" /><path
       d="m 75,622 -13,78 17,-4 13,-79 z"
       class="f1"
       id="path38" /><path
       d="m 46,788 -17,2 -12,73 17,-3 z"
       class="f1"
       id="path39" /><path
       d="m 61,704 -13,80 18,-2 13,-82 z"
       class="f1"
       id="path40" /><path
       d="m 48,788 -12,72 17,-3 12,-71 z"
       class="f1"
       id="path41" /><path
       d="m 107,536 -12,77 18,-6 12,-78 z"
       class="f1"
       id="path42" /><path
       d="m 94,617 -13,79 18,-4 13,-80 z"
       class="f1"
       id="path43" /><path
       d="m 80,700 -13,81 18,-2 13,-83 z"
       class="f1"
       id="path44" /><path
       d="m 66,786 -11,71 10,-1 8,-2 11,-70 z"
       class="f1"
       id="path45" /><path
       d="m 127,529 -13,78 19,-6 13,-79 z"
       class="f1"
       id="path46" /><path
       d="m 114,611 -13,81 19,-4 13,-82 z"
       class="f1"
       id="path47" /><path
       d="m 100,696 -13,83 19,-2 13,-85 z"
       class="f1"
       id="path48" /><path
       d="m 86,784 -11,70 19,-3 11,-69 z"
       class="f1"
       id="path49" /><path
       d="m 147,521 -12,80 20,-6 12,-81 z"
       class="f1"
       id="path50" /><path
       d="m 134,605 -13,82 20,-4 13,-83 z"
       class="f1"
       id="path51" /><path
       d="m 121,692 -14,85 20,-3 13,-86 z"
       class="f1"
       id="path52" /><path
       d="m 107,781 -11,70 20,-3 11,-69 z"
       class="f1"
       id="path53" /><path
       d="m 169,513 -13,82 21,-7 12,-82 z"
       class="f1"
       id="path54" /><path
       d="m 156,599 -13,84 20,-4 13,-86 z"
       class="f1"
       id="path55" /><path
       d="m 142,688 -13,86 21,-2 13,-89 z"
       class="f1"
       id="path56" /><path
       d="m 128,779 -10,69 21,-2 10,-69 z"
       class="f1"
       id="path57" /><path
       d="m 178,593 -13,85 22,-4 13,-87 z"
       class="f1"
       id="path58" /><path
       d="m 191,505 -12,83 21,-6 13,-85 z"
       class="f1"
       id="path59" /><path
       d="m 165,683 -13,89 21,-3 13,-90 z"
       class="f1"
       id="path60" /><path
       d="m 151,777 -10,68 22,-2 9,-69 z"
       class="f1"
       id="path61" /><path
       d="m 214,497 -12,84 23,-6 12,-87 z"
       class="f1"
       id="path62" /><path
       d="m 224,580 -22,6 -13,87 22,-4 z"
       class="f1"
       id="path63" /><path
       d="m 239,488 -12,86 23,-7 12,-88 z"
       class="f1"
       id="path64" /><path
       d="m 250,572 -24,7 -13,89 24,-5 z"
       class="f1"
       id="path65" /><path
       d="m 265,478 -13,89 25,-8 12,-90 z"
       class="f1"
       id="path66" /><path
       d="m 276,565 -24,7 -13,91 25,-5 z"
       class="f1"
       id="path67" /><path
       d="m 279,564 -13,94 27,-6 12,-95 z"
       class="f1"
       id="path68" /><path
       d="m 291,468 -12,91 26,-8 12,-92 z"
       class="f1"
       id="path69" /><path
       d="m 211,674 -23,4 -13,91 23,-3 z"
       class="f1"
       id="path70" /><path
       d="m 236,669 -23,4 -13,93 24,-3 z"
       class="f1"
       id="path71" /><path
       d="m 263,663 -25,5 -12,95 25,-3 z"
       class="f1"
       id="path72" /><path
       d="m 266,663 -13,97 26,-3 13,-99 z"
       class="f1"
       id="path73" /><path
       d="m 197,771 -23,3 -10,69 23,-3 z"
       class="f1"
       id="path74" /><path
       d="m 223,769 -24,2 -10,69 25,-3 z"
       class="f1"
       id="path75" /><path
       d="m 250,766 -25,2 -9,69 25,-2 z"
       class="f1"
       id="path76" /><path
       d="m 252,765 -9,69 27,-2 9,-70 z"
       class="f1"
       id="path77" /><path
       d="m 291,830 9,-73 -19,4 -9,71 z"
       class="f2"
       id="path78" /><path
       d="m 314,828 9,-76 -21,4 -9,74 z"
       class="f2"
       id="path79" /><path
       d="m 338,826 9,-80 -22,5 -9,77 z"
       class="f2"
       id="path80" /><path
       d="m 364,824 9,-83 -24,5 -9,80 z"
       class="f2"
       id="path81" /><path
       d="m 392,822 8,-87 -25,5 -9,84 z"
       class="f2"
       id="path82" /><path
       d="m 422,820 8,-92 -27,6 -9,88 z"
       class="f2"
       id="path83" /><path
       d="m 454,818 8,-97 -29,7 -9,92 z"
       class="f2"
       id="path84" /><path
       d="m 489,817 8,-103 -32,7 -9,97 z"
       class="f2"
       id="path85" /><path
       d="m 526,815 8,-109 -35,7 -7,103 z"
       class="f2"
       id="path86" /><path
       d="m 567,813 7,-115 -37,7 -8,110 z"
       class="f2"
       id="path87" /><path
       d="m 612,811 7,-122 -41,8 -7,116 z"
       class="f2"
       id="path88" /><path
       d="m 661,810 6,-131 -45,9 -6,123 z"
       class="f2"
       id="path89" /><path
       d="m 715,808 5,-140 -49,10 -6,132 z"
       class="f2"
       id="path90" /><path
       d="m 775,807 4,-151 -54,11 -5,141 h 11 z"
       class="f2"
       id="path91" /><path
       d="m 842,807 3,-163 -61,11 -3,152 z"
       class="f2"
       id="path92" /><path
       d="m 845,633 3,-174 -59,20 -4,167 z"
       class="f2"
       id="path93" /><path
       d="m 848,450 3,-161 -56,26 -5,155 z"
       class="f2"
       id="path94" /><path
       d="m 851,280 4,-150 -55,33 -5,144 z"
       class="f2"
       id="path95" /><path
       d="m 795,166 -50,30 -6,138 51,-25 z"
       class="f2"
       id="path96" /><path
       d="m 741,198 -45,28 -8,133 46,-23 z"
       class="f2"
       id="path97" /><path
       d="m 692,228 -42,26 -9,128 43,-21 z"
       class="f2"
       id="path98" /><path
       d="m 646,256 -38,24 -10,123 39,-20 z"
       class="f2"
       id="path99" /><path
       d="m 605,282 -36,21 -10,119 36,-18 z"
       class="f2"
       id="path100" /><path
       d="m 566,305 -33,20 -10,115 33,-16 z"
       class="f2"
       id="path101" /><path
       d="m 530,327 -30,19 -11,111 31,-15 z"
       class="f2"
       id="path102" /><path
       d="m 497,347 -28,18 -12,108 29,-14 z"
       class="f2"
       id="path103" /><path
       d="m 466,366 -26,17 -12,105 27,-14 z"
       class="f2"
       id="path104" /><path
       d="m 437,384 -25,16 -11,102 25,-13 z"
       class="f2"
       id="path105" /><path
       d="m 410,401 -23,14 -12,100 24,-12 z"
       class="f2"
       id="path106" /><path
       d="m 385,417 -22,13 -12,97 22,-11 z"
       class="f2"
       id="path107" /><path
       d="m 361,431 -21,13 -11,94 20,-10 z"
       class="f2"
       id="path108" /><path
       d="m 339,445 c -7,4 -13,9 -20,12 l -11,92 19,-10 z"
       class="f2"
       id="path109" /><path
       d="m 307,555 -12,95 19,-7 12,-98 z"
       class="f2"
       id="path110" /><path
       d="m 294,656 -13,100 20,-5 13,-102 z"
       class="f2"
       id="path111" /><path
       d="m 328,544 -12,98 21,-8 12,-101 z"
       class="f2"
       id="path112" /><path
       d="m 315,648 -12,103 21,-5 12,-106 z"
       class="f2"
       id="path113" /><path
       d="m 351,532 -12,102 22,-9 12,-104 z"
       class="f2"
       id="path114" /><path
       d="m 338,639 -12,106 22,-5 12,-109 z"
       class="f2"
       id="path115" /><path
       d="m 375,520 -12,104 23,-9 12,-106 z"
       class="f2"
       id="path116" /><path
       d="m 362,630 -12,110 23,-6 13,-112 z"
       class="f2"
       id="path117" /><path
       d="m 400,508 -12,107 26,-10 11,-110 z"
       class="f2"
       id="path118" /><path
       d="m 388,621 -12,113 25,-6 12,-116 z"
       class="f2"
       id="path119" /><path
       d="m 428,494 -12,110 27,-10 11,-114 z"
       class="f2"
       id="path120" /><path
       d="m 415,611 -12,116 28,-6 11,-120 z"
       class="f2"
       id="path121" /><path
       d="m 457,479 -12,114 29,-11 11,-117 z"
       class="f2"
       id="path122" /><path
       d="m 445,600 -12,121 30,-7 11,-125 z"
       class="f2"
       id="path123" /><path
       d="m 488,464 -11,118 31,-12 11,-122 z"
       class="f2"
       id="path124" /><path
       d="m 476,588 -11,125 32,-6 11,-130 z"
       class="f2"
       id="path125" /><path
       d="m 522,447 -11,122 34,-12 10,-126 z"
       class="f2"
       id="path126" /><path
       d="m 511,576 -11,130 34,-8 11,-134 z"
       class="f2"
       id="path127" /><path
       d="m 558,429 -10,127 37,-14 9,-131 z"
       class="f2"
       id="path128" /><path
       d="m 548,563 -11,135 38,-8 9,-140 z"
       class="f2"
       id="path129" /><path
       d="m 598,410 -10,131 40,-14 9,-136 z"
       class="f2"
       id="path130" /><path
       d="m 588,549 -10,140 41,-9 9,-146 z"
       class="f2"
       id="path131" /><path
       d="m 641,389 -9,136 44,-15 7,-142 z"
       class="f2"
       id="path132" /><path
       d="m 631,533 -8,146 45,-9 7,-152 z"
       class="f2"
       id="path133" /><path
       d="m 687,366 -7,142 48,-16 6,-148 z"
       class="f2"
       id="path134" /><path
       d="m 679,517 -7,152 49,-10 6,-159 z"
       class="f2"
       id="path135" /><path
       d="m 738,342 -6,148 53,-18 5,-154 z"
       class="f2"
       id="path136" /><path
       d="m 732,499 -7,159 55,-11 5,-166 z"
       class="f2"
       id="path137" /></g></svg>
