<?xml version="1.0" encoding="UTF-8" standalone="no"?>
<svg
   xml:space="preserve"
   id="svg137"
   version="1.1"
   viewBox="0 0 1548 866"
   sodipodi:docname="sketch cpc b.svg"
   xmlns:inkscape="http://www.inkscape.org/namespaces/inkscape"
   xmlns:sodipodi="http://sodipodi.sourceforge.net/DTD/sodipodi-0.dtd"
   xmlns="http://www.w3.org/2000/svg"
   xmlns:svg="http://www.w3.org/2000/svg"><sodipodi:namedview
     id="namedview138"
     pagecolor="#505050"
     bordercolor="#eeeeee"
     borderopacity="1"
     inkscape:showpageshadow="0"
     inkscape:pageopacity="0"
     inkscape:pagecheckerboard="0"
     inkscape:deskcolor="#505050"
     showgrid="false" /><defs
     id="defs1"><linearGradient
       id="alpha_gradient"
       x1="0%"
       x2="0%"
       y1="0%"
       y2="100%"><stop
         offset="70%"
         style="stop-color:white;stop-opacity:1"
         id="stop1" /><stop
         offset="100%"
         style="stop-color:white;stop-opacity:0"
         id="stop2" /></linearGradient><style
       id="style1">.f0{fill:#fff}.f1{fill:#ccc}.f2{fill:#e6e6e6}</style><mask
       id="bottom_fade_mask"><path
         fill="url(#alpha_gradient)"
         d="M0 0h1548v866H0z"
         id="path2" /></mask></defs><ellipse
     style="mix-blend-mode:exclusion;fill:#ffffff;fill-opacity:1;fill-rule:evenodd;stroke:none;stroke-width:32.6444;stroke-linecap:round;stroke-linejoin:round;paint-order:markers fill stroke"
     id="path416"
     cx="788.23743"
     cy="865.8963"
     rx="878.83948"
     ry="146.25752" /><g
     id="g140"><g
       id="costado"
       style="stroke:none"><path
         id="path1"
         d="M925 2v86l156 41-2-83z"
         class="f2"
         style="stroke:none" /><path
         id="path3"
         d="m1082 48 139 41 5 79-141-38z"
         class="f1"
         style="stroke:none" /><path
         id="path4"
         d="m1224 89 126 38 8 76-129-34z"
         class="f2"
         style="stroke:none" /><path
         id="path5"
         d="m1353 127 115 34 9 74-116-32z"
         class="f1"
         style="stroke:none" /><path
         id="path6"
         d="M925 91v90l159 36-2-85z"
         class="f0"
         style="stroke:none" /><path
         id="path7"
         d="m1085 133 141 38 6 81-144-34z"
         class="f1"
         style="stroke:none" /><path
         id="path8"
         d="m1229 171 129 34 7 80-130-32z"
         class="f0"
         style="stroke:none" /><path
         id="path9"
         d="m1361 205 116 32 9 76-118-28z"
         class="f2"
         style="stroke:none" /><path
         id="path10"
         d="M925 183v94l162 33-3-90z"
         class="f2"
         style="stroke:none" /><path
         id="path11"
         d="m1088 221 144 34 6 85-147-29z"
         class="f0"
         style="stroke:none" /><path
         id="path12"
         d="m1235 255 130 32 9 82-133-28z"
         class="f1"
         style="stroke:none" /><path
         id="path13"
         d="m1368 287 118 28 10 79-119-25z"
         class="f1"
         style="stroke:none" /><path
         id="path14"
         d="M925 280v98l165 28-3-93z"
         class="f1"
         style="stroke:none" /><path
         id="path15"
         d="m1091 314 147 29 6 89-150-25z"
         class="f1"
         style="stroke:none" /><path
         id="path16"
         d="m1241 343 133 28 8 86-135-24z"
         class="f0"
         style="stroke:none" /><path
         id="path17"
         d="m1377 371 119 25 11 82-122-21z"
         class="f1"
         style="stroke:none" /><path
         id="path18"
         d="M925 381v102l168 23-3-97z"
         class="f0"
         style="stroke:none" /><path
         id="path19"
         d="m1095 410 149 25 7 92-154-20z"
         class="f1"
         style="stroke:none" /><path
         id="path20"
         d="m1247 435 135 24 9 89-137-20z"
         class="f1"
         style="stroke:none" /><path
         id="path21"
         d="m1385 459 122 21 10 86-123-18z"
         class="f2"
         style="stroke:none" /><path
         id="path22"
         d="M925 486v108l172 17-4-102z"
         class="f1"
         style="stroke:none" /><path
         id="path23"
         d="m1098 510 153 20 5 97-155-15z"
         class="f0"
         style="stroke:none" /><path
         id="path24"
         d="m1254 530 137 20 9 93-140-15z"
         class="f2"
         style="stroke:none" /><path
         id="path25"
         d="m1394 550 123 18 11 88-125-13z"
         class="f1"
         style="stroke:none" /><path
         id="path26"
         d="M925 597v113l175 11-3-107z"
         class="f2"
         style="stroke:none" /><path
         id="path27"
         d="m1102 615 155 15 6 102-159-10z"
         class="f2"
         style="stroke:none" /><path
         id="path28"
         d="m1260 630 140 15 9 97-142-10z"
         class="f0"
         style="stroke:none" /><path
         id="path29"
         d="m1403 645 125 13 12 92-128-8z"
         class="f2"
         style="stroke:none" /><path
         id="path30"
         d="M925 712v154h180l-5-142Z"
         class="f1"
         style="stroke:none" /><path
         id="path31"
         d="m1105 724 159 10 8 132h-162Z"
         class="f1"
         style="stroke:none" /><path
         id="path32"
         d="m1267 734 142 10 12 122h-145z"
         class="f2"
         style="stroke:none" /><path
         id="path33"
         d="m1412 744 128 8 15 114h-131Z"
         class="f1"
         style="stroke:none" /></g><g
       id="frente"
       style="stroke:none"><path
         id="path34"
         d="m0 866 31-179 30-175 115-47 149-62 212-144 168-114L918 0v866h-70l3-240 3-176 3-168 3-163C679 229 499 341 319 453L88 539l-19 7-27 159-27 161Z"
         class="f0"
         style="stroke:none" /><path
         id="path35"
         d="m57 623 17-4 13-75-17 6z"
         class="f1"
         style="stroke:none" /><path
         id="path36"
         d="m73 623-16 5-13 75 17-3z"
         class="f1"
         style="stroke:none" /><path
         id="path37"
         d="m88 543-12 75 17-5 12-76z"
         class="f1"
         style="stroke:none" /><path
         id="path38"
         d="m60 704-17 4-13 78 17-2z"
         class="f1"
         style="stroke:none" /><path
         id="path39"
         d="m75 622-13 78 17-4 13-79z"
         class="f1"
         style="stroke:none" /><path
         id="path40"
         d="m46 788-17 2-12 76h16z"
         class="f1"
         style="stroke:none" /><path
         id="path41"
         d="m61 704-13 80 18-2 13-82z"
         class="f1"
         style="stroke:none" /><path
         id="path42"
         d="m48 788-13 78h17l13-80Z"
         class="f1"
         style="stroke:none" /><path
         id="path43"
         d="m107 536-12 77 18-6 12-78z"
         class="f1"
         style="stroke:none" /><path
         id="path44"
         d="m94 617-13 79 18-4 13-80z"
         class="f1"
         style="stroke:none" /><path
         id="path45"
         d="m80 700-13 81 18-2 13-83z"
         class="f1"
         style="stroke:none" /><path
         id="path46"
         d="m66 786-13 80h18l13-82Z"
         class="f1"
         style="stroke:none" /><path
         id="path47"
         d="m127 529-13 78 19-6 13-79z"
         class="f1"
         style="stroke:none" /><path
         id="path48"
         d="m114 611-13 81 19-4 13-82z"
         class="f1"
         style="stroke:none" /><path
         id="path49"
         d="m100 696-13 83 19-2 13-85z"
         class="f1"
         style="stroke:none" /><path
         id="path50"
         d="m86 784-13 82h18l14-84Z"
         class="f1"
         style="stroke:none" /><path
         id="path51"
         d="m147 521-12 80 20-6 12-81z"
         class="f1"
         style="stroke:none" /><path
         id="path52"
         d="m134 605-13 82 20-4 13-83z"
         class="f1"
         style="stroke:none" /><path
         id="path53"
         d="m121 692-14 85 20-3 13-86z"
         class="f1"
         style="stroke:none" /><path
         id="path54"
         d="m107 781-13 85h19l14-87Z"
         class="f1"
         style="stroke:none" /><path
         id="path55"
         d="m169 513-13 82 21-7 12-82z"
         class="f1"
         style="stroke:none" /><path
         id="path56"
         d="m156 599-13 84 20-4 13-86z"
         class="f1"
         style="stroke:none" /><path
         id="path57"
         d="m142 688-13 86 21-2 13-89z"
         class="f1"
         style="stroke:none" /><path
         id="path58"
         d="m128 779-13 87h21l13-89Z"
         class="f1"
         style="stroke:none" /><path
         id="path59"
         d="m178 593-13 85 22-4 13-87z"
         class="f1"
         style="stroke:none" /><path
         id="path60"
         d="m191 505-12 83 21-6 13-85z"
         class="f1"
         style="stroke:none" /><path
         id="path61"
         d="m165 683-13 89 21-3 13-90z"
         class="f1"
         style="stroke:none" /><path
         id="path62"
         d="m151 777-13 89h22l12-92Z"
         class="f1"
         style="stroke:none" /><path
         id="path63"
         d="m214 497-12 84 23-6 12-87z"
         class="f1"
         style="stroke:none" /><path
         id="path64"
         d="m224 580-22 6-13 87 22-4z"
         class="f1"
         style="stroke:none" /><path
         id="path65"
         d="m239 488-12 86 23-7 12-88z"
         class="f1"
         style="stroke:none" /><path
         id="path66"
         d="m250 572-24 7-13 89 24-5z"
         class="f1"
         style="stroke:none" /><path
         id="path67"
         d="m265 478-13 89 25-8 12-90z"
         class="f1"
         style="stroke:none" /><path
         id="path68"
         d="m276 565-24 7-13 91 25-5z"
         class="f1"
         style="stroke:none" /><path
         id="path69"
         d="m279 564-13 94 27-6 12-95z"
         class="f1"
         style="stroke:none" /><path
         id="path70"
         d="m291 468-12 91 26-8 12-92z"
         class="f1"
         style="stroke:none" /><path
         id="path71"
         d="m211 674-23 4-13 91 23-3z"
         class="f1"
         style="stroke:none" /><path
         id="path72"
         d="m236 669-23 4-13 93 24-3z"
         class="f1"
         style="stroke:none" /><path
         id="path73"
         d="m263 663-25 5-12 95 25-3z"
         class="f1"
         style="stroke:none" /><path
         id="path74"
         d="m266 663-13 97 26-3 13-99z"
         class="f1"
         style="stroke:none" /><path
         id="path75"
         d="m197 771-23 3-13 92h22z"
         class="f1"
         style="stroke:none" /><path
         id="path76"
         d="m223 769-24 2-14 95h25z"
         class="f1"
         style="stroke:none" /><path
         id="path77"
         d="m250 766-25 2-13 98h25z"
         class="f1"
         style="stroke:none" /><path
         id="path78"
         d="m252 765-13 101h26l14-104Z"
         class="f1"
         style="stroke:none" /><path
         id="path79"
         d="m286 866 14-109-19 4-13 105z"
         class="f2"
         style="stroke:none" /><path
         id="path80"
         d="m309 866 14-114-21 4-13 110z"
         class="f2"
         style="stroke:none" /><path
         id="path81"
         d="m333 866 14-120-22 5-13 115z"
         class="f2"
         style="stroke:none" /><path
         id="path82"
         d="m359 866 14-125-24 5-13 120z"
         class="f2"
         style="stroke:none" /><path
         id="path83"
         d="m388 866 12-131-25 5-13 126z"
         class="f2"
         style="stroke:none" /><path
         id="path84"
         d="m418 866 12-138-27 6-13 132z"
         class="f2"
         style="stroke:none" /><path
         id="path85"
         d="m449 866 13-145-29 7-13 138z"
         class="f2"
         style="stroke:none" /><path
         id="path86"
         d="m485 866 12-152-32 7-13 145z"
         class="f2"
         style="stroke:none" /><path
         id="path87"
         d="m522 866 12-160-35 7-10 153z"
         class="f2"
         style="stroke:none" /><path
         id="path88"
         d="m564 866 10-168-37 7-11 161z"
         class="f2"
         style="stroke:none" /><path
         id="path89"
         d="m609 866 10-177-41 8-10 169z"
         class="f2"
         style="stroke:none" /><path
         id="path90"
         d="m659 866 8-187-45 9-9 178z"
         class="f2"
         style="stroke:none" /><path
         id="path91"
         d="m713 866 7-198-49 10-8 188z"
         class="f2"
         style="stroke:none" /><path
         id="path92"
         d="m773 866 6-210-54 11-7 199z"
         class="f2"
         style="stroke:none" /><path
         id="path93"
         d="m841 866 4-222-61 11-4 211z"
         class="f2"
         style="stroke:none" /><path
         id="path94"
         d="m845 633 3-174-59 20-4 167z"
         class="f2"
         style="stroke:none" /><path
         id="path95"
         d="m848 450 3-161-56 26-5 155z"
         class="f2"
         style="stroke:none" /><path
         id="path96"
         d="m851 280 4-150-55 33-5 144z"
         class="f2"
         style="stroke:none" /><path
         id="path97"
         d="m795 166-50 30-6 138 51-25z"
         class="f2"
         style="stroke:none" /><path
         id="path98"
         d="m741 198-45 28-8 133 46-23z"
         class="f2"
         style="stroke:none" /><path
         id="path99"
         d="m692 228-42 26-9 128 43-21z"
         class="f2"
         style="stroke:none" /><path
         id="path100"
         d="m646 256-38 24-10 123 39-20z"
         class="f2"
         style="stroke:none" /><path
         id="path101"
         d="m605 282-36 21-10 119 36-18z"
         class="f2"
         style="stroke:none" /><path
         id="path102"
         d="m566 305-33 20-10 115 33-16z"
         class="f2"
         style="stroke:none" /><path
         id="path103"
         d="m530 327-30 19-11 111 31-15z"
         class="f2"
         style="stroke:none" /><path
         id="path104"
         d="m497 347-28 18-12 108 29-14z"
         class="f2"
         style="stroke:none" /><path
         id="path105"
         d="m466 366-26 17-12 105 27-14z"
         class="f2"
         style="stroke:none" /><path
         id="path106"
         d="m437 384-25 16-11 102 25-13z"
         class="f2"
         style="stroke:none" /><path
         id="path107"
         d="m410 401-23 14-12 100 24-12z"
         class="f2"
         style="stroke:none" /><path
         id="path108"
         d="m385 417-22 13-12 97 22-11z"
         class="f2"
         style="stroke:none" /><path
         id="path109"
         d="m361 431-21 13-11 94 20-10z"
         class="f2"
         style="stroke:none" /><path
         id="path110"
         d="M339 445c-7 4-13 9-20 12l-11 92 19-10z"
         class="f2"
         style="stroke:none" /><path
         id="path111"
         d="m307 555-12 95 19-7 12-98z"
         class="f2"
         style="stroke:none" /><path
         id="path112"
         d="m294 656-13 100 20-5 13-102z"
         class="f2"
         style="stroke:none" /><path
         id="path113"
         d="m328 544-12 98 21-8 12-101z"
         class="f2"
         style="stroke:none" /><path
         id="path114"
         d="m315 648-12 103 21-5 12-106z"
         class="f2"
         style="stroke:none" /><path
         id="path115"
         d="m351 532-12 102 22-9 12-104z"
         class="f2"
         style="stroke:none" /><path
         id="path116"
         d="m338 639-12 106 22-5 12-109z"
         class="f2"
         style="stroke:none" /><path
         id="path117"
         d="m375 520-12 104 23-9 12-106z"
         class="f2"
         style="stroke:none" /><path
         id="path118"
         d="m362 630-12 110 23-6 13-112z"
         class="f2"
         style="stroke:none" /><path
         id="path119"
         d="m400 508-12 107 26-10 11-110z"
         class="f2"
         style="stroke:none" /><path
         id="path120"
         d="m388 621-12 113 25-6 12-116z"
         class="f2"
         style="stroke:none" /><path
         id="path121"
         d="m428 494-12 110 27-10 11-114z"
         class="f2"
         style="stroke:none" /><path
         id="path122"
         d="m415 611-12 116 28-6 11-120z"
         class="f2"
         style="stroke:none" /><path
         id="path123"
         d="m457 479-12 114 29-11 11-117z"
         class="f2"
         style="stroke:none" /><path
         id="path124"
         d="m445 600-12 121 30-7 11-125z"
         class="f2"
         style="stroke:none" /><path
         id="path125"
         d="m488 464-11 118 31-12 11-122z"
         class="f2"
         style="stroke:none" /><path
         id="path126"
         d="m476 588-11 125 32-6 11-130z"
         class="f2"
         style="stroke:none" /><path
         id="path127"
         d="m522 447-11 122 34-12 10-126z"
         class="f2"
         style="stroke:none" /><path
         id="path128"
         d="m511 576-11 130 34-8 11-134z"
         class="f2"
         style="stroke:none" /><path
         id="path129"
         d="m558 429-10 127 37-14 9-131z"
         class="f2"
         style="stroke:none" /><path
         id="path130"
         d="m548 563-11 135 38-8 9-140z"
         class="f2"
         style="stroke:none" /><path
         id="path131"
         d="m598 410-10 131 40-14 9-136z"
         class="f2"
         style="stroke:none" /><path
         id="path132"
         d="m588 549-10 140 41-9 9-146z"
         class="f2"
         style="stroke:none" /><path
         id="path133"
         d="m641 389-9 136 44-15 7-142z"
         class="f2"
         style="stroke:none" /><path
         id="path134"
         d="m631 533-8 146 45-9 7-152z"
         class="f2"
         style="stroke:none" /><path
         id="path135"
         d="m687 366-7 142 48-16 6-148z"
         class="f2"
         style="stroke:none" /><path
         id="path136"
         d="m679 517-7 152 49-10 6-159z"
         class="f2"
         style="stroke:none" /><path
         id="path137"
         d="m738 342-6 148 53-18 5-154z"
         class="f2"
         style="stroke:none" /><path
         id="path138"
         d="m732 499-7 159 55-11 5-166z"
         class="f2"
         style="stroke:none" /></g></g></svg>
