<!DOCTYPE svg PUBLIC "-//W3C//DTD SVG 1.1//EN" "http://www.w3.org/Graphics/SVG/1.1/DTD/svg11.dtd"><svg xmlns="http://www.w3.org/2000/svg" xml:space="preserve" width="2135" height="972" style="shape-rendering:geometricPrecision;text-rendering:geometricPrecision;image-rendering:optimizeQuality;fill-rule:evenodd;clip-rule:evenodd" viewBox="0 0 1763 803"><defs><style>.f0{fill:#fff}.f2{fill:#ccc}.f1{fill:#e6e6e6}</style></defs><g id="Layer_x0020_1"><path d="m1060 0 154 37 5 69-160-35 1-71z" class="f1"/><path d="m1214 37 142 34 9 67-146-32-5-69z" class="f2"/><path d="m1356 71 130 31 13 66-134-30-9-67z" class="f1"/><path d="m1486 102 120 29 16 64-123-27-13-66z" class="f2"/><path d="m1059 71 160 35 4 75a175527 175527 0 0 0-166-33l2-77z" class="f0"/><path d="m1219 106 146 32 9 72a68602 68602 0 0 0-151-29l-4-75z" class="f2"/><path d="m1365 138 134 30 13 70-138-28-9-72z" class="f0"/><path d="m1499 168 123 27 16 68-126-25-13-70z" class="f1"/><path d="M1057 148a175527 175527 0 0 1 166 33l5 79-173-29 2-83z" class="f1"/><path d="M1223 181a68602 68602 0 0 1 151 29l10 78-156-28-5-79z" class="f0"/><path d="m1374 210 138 28 14 75-142-25-10-78z" class="f2"/><path d="m1512 238 127 25 17 73-130-23-14-75z" class="f2"/><path d="m1055 231 173 30 5 86-179-27 1-89z" class="f2"/><path d="m1228 261 156 27 11 83-162-24-5-87z" class="f2"/><path d="m1384 288 142 25 15 80-146-22-11-83z" class="f0"/><path d="m1526 313 130 23 19 77-134-20-15-80z" class="f2"/><path d="m1054 320 179 27 5 93-186-22 2-98z" class="f0"/><path d="m1233 347 162 24 11 89-168-20-5-93z" class="f2"/><path d="m1395 371 146 22 17 86-152-19-11-89z" class="f2"/><path d="m1541 393 134 20 21 83-138-17-17-86z" class="f1"/><path d="m1052 418 186 22 6 101-195-17 3-106z" class="f2"/><path d="m1238 440 168 20 12 97-174-16-6-101z" class="f0"/><path d="m1406 460 152 19 17 93-157-15-12-97z" class="f1"/><path d="m1558 479 138 17 21 89-142-13-17-93z" class="f2"/><path d="m1049 524 195 17 6 111-203-12 2-116z" class="f1"/><path d="m1244 541 174 16 13 105-181-10-6-111z" class="f1"/><path d="m1418 557 157 15 19 100-163-10-13-105z" class="f0"/><path d="m1575 572 142 13 24 96-147-9-19-100z" class="f1"/><path d="m1047 640 203 12 5 90a9019 9019 0 0 0-210-3l2-99z" class="f2"/><path d="m1250 652 182 10 10 87a8049 8049 0 0 0-187-7l-5-90z" class="f2"/><path d="m1432 663 162 9 16 88a6634 6634 0 0 0-168-11l-11-86z" class="f1"/><path d="m1594 672 147 9 22 93a4473 4473 0 0 0-47-5 5226 5226 0 0 0-106-9l-16-88z" class="f2"/><path d="m0 803 72-188 66-171 131-45 166-57 233-127L1060 0l-6 322-9 417h-75a133408 133408 0 0 1 31-643 73375 73375 0 0 0-360 181 58574 58574 0 0 0-219 111v1l-143 44-116 37-22 6-59 157-63 167-19 3z" class="f2"/><g id="_1398928869520"><path d="m114 552 19-5 27-73-19 6-27 72z" class="f2"/><path d="m132 551-19 5-29 76 19-3 29-78z" class="f2"/><path d="m162 473-27 73 20-5 27-74-20 6z" class="f2"/><path d="m101 633-19 3-31 81 20-2 30-82z" class="f2"/><path d="m133 551-28 77 19-3 29-79-20 5z" class="f2"/><path d="m69 720-19 2-30 78 20-3 29-77z" class="f2"/><path d="m103 633-31 82 20-2 31-84-20 4z" class="f2"/><path d="m71 720-29 76a3450 3450 0 0 1 21-2l27-76-19 2z" class="f2"/><path d="m184 467-27 74 20-5 27-76-20 7z" class="f2"/><path d="m155 545-29 79 21-4 29-80-21 5z" class="f2"/><path d="M125 629a58866 58866 0 0 0-31 84l21-3 30-85-20 4z" class="f2"/><path d="m92 718-27 75 11-1 10-2 27-75-21 3z" class="f2"/><path d="m206 460-27 75 22-5 26-77-21 7z" class="f2"/><path d="m178 540-29 80 21-4 29-82-21 6z" class="f2"/><path d="m147 625-30 85 21-2 31-87-22 4z" class="f2"/><path d="m115 715-27 75 23-3 25-74-21 2z" class="f2"/><path d="m229 453-27 76a3987 3987 0 0 1 23-5l27-78-23 7z" class="f2"/><path d="m201 534-29 82 23-4 28-84-22 6z" class="f2"/><path d="m171 620-31 88 23-3 30-89-22 4z" class="f2"/><path d="m138 713-25 74 23-3 25-74-23 3z" class="f2"/><path d="m254 445-27 78 23-6 27-79-23 7z" class="f2"/><path d="m225 528-28 83 23-4 29-85-24 6z" class="f2"/><path d="m195 616-30 89 23-2 31-91a5947 5947 0 0 1-24 4z" class="f2"/><path d="m163 710-25 74 24-3 25-73-24 2z" class="f2"/><path d="m251 522-29 85 25-5 28-87-24 7z" class="f2"/><path d="m279 437-27 80 24-6 27-81-24 7z" class="f2"/><path d="m221 611-30 91 24-2 30-93-24 4z" class="f2"/><path d="m189 708-24 73 25-3 23-73-24 3z" class="f2"/><path d="m305 429-26 81 25-6 26-83-25 8z" class="f2"/><path d="m303 509-26 6-28 87 26-5c9-30 18-60 28-88z" class="f2"/><path d="m332 421-26 82 27-6 25-84-26 8z" class="f2"/><path d="m331 502-26 6-28 89 27-5 27-90z" class="f2"/><path d="m361 412-26 84 28-7 25-85-27 8z" class="f2"/><path d="m361 494-27 7-28 90 28-5 27-92z" class="f2"/><path d="m364 494-27 92 29-6 27-94-29 8z" class="f2"/><path d="m391 403-26 86 29-8 25-87-28 9z" class="f2"/><path d="m273 602-26 5-30 92 26-2 30-95z" class="f2"/><path d="m302 597-27 5-29 95 27-3 29-97z" class="f2"/><path d="m333 592-28 4-30 97 29-3 29-98z" class="f2"/><path d="m335 591-29 99a4882 4882 0 0 1 30-3l29-101-30 5z" class="f2"/><path d="m242 702-26 3-24 73 27-3 23-73z" class="f2"/><path d="m271 699-27 3-23 73 28-3 22-73z" class="f2"/><path d="m302 696-29 3-22 73 30-3 21-73z" class="f2"/><path d="m304 696-21 73 31-3 20-73-30 3z" class="f2"/></g><g id="_1398928891728"><path d="m338 764 22-77-23 5-21 74 22-2z" class="f1"/><path d="m364 762 22-80-24 5-21 77 23-2z" class="f1"/><path d="m392 760 21-84-25 5-21 81 25-2z" class="f1"/><path d="m422 758 21-88-27 6-22 84 28-2z" class="f1"/><path d="m453 756 21-92-29 6-21 88 29-2z" class="f1"/><path d="m487 754 21-97-31 7-21 92 31-2z" class="f1"/><path d="m524 752 20-102-33 7-21 97 34-2z" class="f1"/><path d="m563 750 20-107-36 7-20 102 36-2z" class="f1"/><path d="m606 748 19-113-38 7-20 108 39-2z" class="f1"/><path d="m653 746 18-120-42 8-19 114 43-2z" class="f1"/><path d="m703 744 18-127a8349 8349 0 0 0-46 8 35190 35190 0 0 0-18 121l46-2z" class="f1"/><path d="m759 742 16-135-50 9-17 128 51-2z" class="f1"/><path d="m820 741 14-145-55 10-15 136 56-1z" class="f1"/><path d="m888 740 11-156-60 11-13 146h12l50-1z" class="f1"/><path d="m964 739 8-167-67 11-11 157 70-1z" class="f1"/><path d="m972 562 8-168-62 19-12 161 66-12z" class="f1"/><path d="m981 386 7-146-59 24-11 140 63-18z" class="f1"/><path d="m989 233 6-128-56 28-9 123 59-23z" class="f1"/><path d="m935 135-52 25-12 120 54-22 10-123z" class="f1"/><path d="m879 163-47 23-15 116a9181 9181 0 0 1 49-20l13-119z" class="f1"/><path d="m828 188-44 22-17 113 45-19 16-116z" class="f1"/><path d="m780 212-41 20-18 110a11648 11648 0 0 0 42-17l17-113z" class="f1"/><path d="m736 234-38 19-20 107 39-16 19-110z" class="f1"/><path d="m694 255-35 18-21 104a9857 9857 0 0 1 36-16l20-106z" class="f1"/><path d="m656 274-33 17-22 101 34-14 21-104z" class="f1"/><path d="m620 292-31 16-23 99 32-13 22-102z" class="f1"/><path d="m586 309-29 15a41114 41114 0 0 0-24 97l30-13 23-99z" class="f1"/><path d="m554 325-28 14-23 95 28-12 23-97z" class="f1"/><path d="m524 341-26 13-24 92 26-11a58509 58509 0 0 1 24-94z" class="f1"/><path d="m496 355-25 12-24 91 25-11 24-92z" class="f1"/><path d="m469 369-23 11-25 89 24-10 24-90z" class="f1"/><path d="m444 381-22 12-25 87 22-10 25-89z" class="f1"/><path d="m396 485-27 94 22-8 27-96-22 10z" class="f1"/><path d="m367 584-28 102 22-5 29-104-23 7z" class="f1"/><path d="m420 474-27 96 24-7 26-99-23 10z" class="f1"/><path d="m392 576-29 105 24-5 29-108-24 8z" class="f1"/><path d="m445 463-26 99 25-9 26-100-25 10z" class="f1"/><path d="M418 568a41223 41223 0 0 0-29 107l26-5 28-111-25 9z" class="f1"/><path d="m473 452-26 101 27-9 25-103-26 11z" class="f1"/><path d="m445 559-28 110 27-5 28-114-27 9z" class="f1"/><path d="m501 440-25 103 28-9 26-106a9427 9427 0 0 0-29 12z" class="f1"/><path d="M475 549a29022 29022 0 0 0-28 114l29-6 27-117-29 9z" class="f1"/><path d="m532 427-25 106 31-10 24-109-30 13z" class="f1"/><path d="m506 539-28 118 32-7 26-121-30 10z" class="f1"/><path d="m565 413-25 109 33-10 24-112a8227 8227 0 0 1-32 13z" class="f1"/><path d="m539 529-27 121 34-7 26-125-33 11z" class="f1"/><path d="M599 398a38360 38360 0 0 0-23 113l35-12 23-115a6504 6504 0 0 0-35 14z" class="f1"/><path d="M574 517a35118 35118 0 0 0-25 125l36-7 25-129-36 11z" class="f1"/><path d="M637 383a39100 39100 0 0 0-23 115l38-12 21-118-36 15z" class="f1"/><path d="m613 505-25 130 39-8 23-134-37 12z" class="f1"/><path d="m677 366-22 119 41-12 20-123-39 16z" class="f1"/><path d="m654 492-24 134 42-8 22-138-40 12z" class="f1"/><path d="m719 349-20 122 44-13 19-127-43 18z" class="f1"/><path d="m698 479-22 138 46-9 20-143-44 14z" class="f1"/><path d="m766 330-19 126 48-14 17-131-46 19z" class="f1"/><path d="m746 464-20 144 50-10 18-149-48 15z" class="f1"/><path d="m816 309-17 131 52-16 14-135-49 20z" class="f1"/><path d="m798 448-17 149 54-10 15-155a22561 22561 0 0 0-52 16z" class="f1"/><path d="m870 287-14 136 57-17 11-140-54 21z" class="f1"/><path d="m855 431-15 155 60-11 12-161-57 17z" class="f1"/></g></g></svg>