<?xml version="1.0" encoding="UTF-8"?><!DOCTYPE svg PUBLIC "-//W3C//DTD SVG 1.1//EN" "http://www.w3.org/Graphics/SVG/1.1/DTD/svg11.dtd"><svg xmlns="http://www.w3.org/2000/svg" xml:space="preserve" viewBox="0 0 1548 866"><defs><style>.f0{fill:#fff}.f1{fill:#ccc}.f2{fill:#e6e6e6}</style></defs><g id="_1398928510976"><path d="m918 0 158 46 3 85-161-42V0z" class="f2"/><path d="m1076 46 142 42 5 82-144-39-3-85z" class="f1"/><path d="m1218 88 129 38 8 78-132-34-5-82z" class="f2"/><path d="m1347 126 118 34 9 76-119-32-8-78z" class="f1"/><path d="m918 89 161 42 3 88-165-38 1-92z" class="f0"/><path d="m1079 131 144 39 6 84-147-35-3-88z" class="f1"/><path d="m1223 170 132 34 7 82-133-32-6-84z" class="f0"/><path d="m1355 204 119 32 9 78-121-28-7-82z" class="f2"/><path d="m917 181 165 38 3 93-168-34v-97z" class="f2"/><path d="m1082 219 147 35 6 88-150-30-3-93z" class="f0"/><path d="m1229 254 133 32 9 84-136-28-6-88z" class="f1"/><path d="m1362 286 121 28 10 81-122-25-9-84z" class="f1"/><path d="m917 278 168 34 3 96-172-29 1-101z" class="f1"/><path d="m1085 312 150 30 6 92-153-26-3-96z" class="f1"/><path d="m1235 342 136 28 8 88-138-24-6-92z" class="f0"/><path d="m1371 370 122 25 11 84-125-21-8-88z" class="f1"/><path d="m916 379 172 29 3 100-175-24V379z" class="f0"/><path d="m1088 408 153 26 7 95-157-21-3-100z" class="f1"/><path d="m1241 434 138 24 9 91-140-20-7-95z" class="f1"/><path d="m1379 458 125 21 10 88-126-18-9-91z" class="f2"/><path d="m916 484 175 24 4 105-180-18 1-111z" class="f1"/><path d="m1091 508 157 21 6 100-159-16-4-105z" class="f0"/><path d="m1248 529 140 20 9 95-143-15-6-100z" class="f2"/><path d="m1388 549 126 18 11 90-128-13-9-95z" class="f1"/><path d="m915 595 180 18 3 110-183-12V595z" class="f2"/><path d="m1095 613 159 16 7 104-163-10-3-110z" class="f2"/><path d="m1254 629 143 15 9 99-145-10-7-104z" class="f0"/><path d="m1397 644 128 13 12 94-131-8-9-99z" class="f2"/><path d="m915 711 183 12 3 87c-61-2-123-3-187-3l1-96z" class="f1"/><path d="m1098 723 163 10 5 83c-53-2-109-5-165-6l-3-87z" class="f1"/><path d="m1261 733 145 10 8 83-148-10-5-83z" class="f2"/><path d="m1406 743 131 8 11 88-42-4-92-9-8-83z" class="f1"/><path d="m0 866 31-179 30-175 115-47 149-62 212-144 168-114L918 0l-1 188-1 193a96519 96519 0 0 0-2 426h-66l3-181 3-176 3-168 3-163a63039 63039 0 0 0-541 334 47434 47434 0 0 0-231 86l-19 7-27 159-26 158-16 3z" class="f1"/><path d="m57 623 17-4 13-75-17 6-13 73z" class="f1"/><path d="m73 623-16 5-13 75 17-3 12-77z" class="f1"/><path d="m88 543-12 75 17-5 12-76-17 6z" class="f1"/><path d="m60 704-17 4-13 78 17-2 13-80z" class="f1"/><path d="m75 622-13 78 17-4 13-79-17 5z" class="f1"/><path d="m46 788-17 2-12 73 17-3 12-72z" class="f1"/><path d="m61 704-13 80 18-2 13-82-18 4z" class="f1"/><path d="m48 788-12 72 17-3 12-71-17 2z" class="f1"/><path d="m107 536-12 77 18-6 12-78-18 7z" class="f1"/><path d="m94 617-13 79 18-4 13-80-18 5z" class="f1"/><path d="m80 700-13 81 18-2 13-83-18 4z" class="f1"/><path d="m66 786-11 71 10-1 8-2 11-70-18 2z" class="f1"/><path d="m127 529-13 78 19-6 13-79-19 7z" class="f1"/><path d="m114 611-13 81 19-4 13-82-19 5z" class="f1"/><path d="m100 696-13 83 19-2 13-85-19 4z" class="f1"/><path d="m86 784-11 70 19-3 11-69-19 2z" class="f1"/><path d="m147 521-12 80 20-6 12-81-20 7z" class="f1"/><path d="m134 605-13 82 20-4 13-83-20 5z" class="f1"/><path d="m121 692-14 85 20-3 13-86-19 4z" class="f1"/><path d="m107 781-11 70 20-3 11-69-20 2z" class="f1"/><path d="m169 513-13 82 21-7 12-82-20 7z" class="f1"/><path d="m156 599-13 84 20-4 13-86-20 6z" class="f1"/><path d="m142 688-13 86 21-2 13-89-21 5z" class="f1"/><path d="m128 779-10 69 21-2 10-69-21 2z" class="f1"/><path d="m178 593-13 85 22-4 13-87-22 6z" class="f1"/><path d="m191 505-12 83 21-6 13-85-22 8z" class="f1"/><path d="m165 683-13 89 21-3 13-90-21 4z" class="f1"/><path d="m151 777-10 68 22-2 9-69-21 3z" class="f1"/><path d="m214 497-12 84 23-6 12-87-23 9z" class="f1"/><path d="m224 580-22 6-13 87 22-4 13-89z" class="f1"/><path d="m239 488-12 86 23-7 12-88-23 9z" class="f1"/><path d="m250 572-24 7-13 89 24-5 13-91z" class="f1"/><path d="m265 478-13 89 25-8 12-90-24 9z" class="f1"/><path d="m276 565-24 7-13 91 25-5 12-93z" class="f1"/><path d="m279 564-13 94 27-6 12-95-26 7z" class="f1"/><path d="m291 468-12 91 26-8 12-92-26 9z" class="f1"/><path d="m211 674-23 4-13 91 23-3 13-92z" class="f1"/><path d="m236 669-23 4-13 93 24-3 12-94z" class="f1"/><path d="m263 663-25 5-12 95 25-3 12-97z" class="f1"/><path d="m266 663-13 97 26-3 13-99-26 5z" class="f1"/><path d="m197 771-23 3-10 69 23-3 10-69z" class="f1"/><path d="m223 769-24 2-10 69 25-3 9-68z" class="f1"/><path d="m250 766-25 2-9 69 25-2 9-69z" class="f1"/><path d="m252 765-9 69 27-2 9-70-27 3z" class="f1"/><path d="m291 830 9-73-19 4-9 71 19-2z" class="f2"/><path d="m314 828 9-76-21 4-9 74 21-2z" class="f2"/><path d="m338 826 9-80-22 5-9 77 22-2z" class="f2"/><path d="m364 824 9-83-24 5-9 80 24-2z" class="f2"/><path d="m392 822 8-87-25 5-9 84 26-2z" class="f2"/><path d="m422 820 8-92-27 6-9 88 28-2z" class="f2"/><path d="m454 818 8-97-29 7-9 92 30-2z" class="f2"/><path d="m489 817 8-103-32 7-9 97 33-1z" class="f2"/><path d="m526 815 8-109-35 7-7 103 34-1z" class="f2"/><path d="m567 813 7-115-37 7-8 110 38-2z" class="f2"/><path d="m612 811 7-122-41 8-7 116 41-2z" class="f2"/><path d="m661 810 6-131-45 9-6 123 45-1z" class="f2"/><path d="m715 808 5-140-49 10-6 132 50-2z" class="f2"/><path d="m775 807 4-151-54 11-5 141h11l44-1z" class="f2"/><path d="m842 807 3-163-61 11-3 152h61z" class="f2"/><path d="m845 633 3-174-59 20-4 167 60-13z" class="f2"/><path d="m848 450 3-161-56 26-5 155 58-20z" class="f2"/><path d="m851 280 4-150-55 33-5 144 56-27z" class="f2"/><path d="m795 166-50 30-6 138 51-25 5-143z" class="f2"/><path d="m741 198-45 28-8 133 46-23 7-138z" class="f2"/><path d="m692 228-42 26-9 128 43-21 8-133z" class="f2"/><path d="m646 256-38 24-10 123 39-20 9-127z" class="f2"/><path d="m605 282-36 21-10 119 36-18 10-122z" class="f2"/><path d="m566 305-33 20-10 115 33-16 10-119z" class="f2"/><path d="m530 327-30 19-11 111 31-15 10-115z" class="f2"/><path d="m497 347-28 18-12 108 29-14 11-112z" class="f2"/><path d="m466 366-26 17-12 105 27-14 11-108z" class="f2"/><path d="m437 384-25 16-11 102 25-13 11-105z" class="f2"/><path d="m410 401-23 14-12 100 24-12 11-102z" class="f2"/><path d="m385 417-22 13-12 97 22-11 12-99z" class="f2"/><path d="m361 431-21 13-11 94 20-10 12-97z" class="f2"/><path d="M339 445c-7 4-13 9-20 12l-11 92 19-10 12-94z" class="f2"/><path d="m307 555-12 95 19-7 12-98-19 10z" class="f2"/><path d="m294 656-13 100 20-5 13-102-20 7z" class="f2"/><path d="m328 544-12 98 21-8 12-101-21 11z" class="f2"/><path d="m315 648-12 103 21-5 12-106-21 8z" class="f2"/><path d="m351 532-12 102 22-9 12-104-22 11z" class="f2"/><path d="m338 639-12 106 22-5 12-109-22 8z" class="f2"/><path d="m375 520-12 104 23-9 12-106-23 11z" class="f2"/><path d="m362 630-12 110 23-6 13-112-24 8z" class="f2"/><path d="m400 508-12 107 26-10 11-110-25 13z" class="f2"/><path d="m388 621-12 113 25-6 12-116-25 9z" class="f2"/><path d="m428 494-12 110 27-10 11-114-26 14z" class="f2"/><path d="m415 611-12 116 28-6 11-120-27 10z" class="f2"/><path d="m457 479-12 114 29-11 11-117-28 14z" class="f2"/><path d="m445 600-12 121 30-7 11-125-29 11z" class="f2"/><path d="m488 464-11 118 31-12 11-122-31 16z" class="f2"/><path d="m476 588-11 125 32-6 11-130-32 11z" class="f2"/><path d="m522 447-11 122 34-12 10-126-33 16z" class="f2"/><path d="m511 576-11 130 34-8 11-134-34 12z" class="f2"/><path d="m558 429-10 127 37-14 9-131-36 18z" class="f2"/><path d="m548 563-11 135 38-8 9-140-36 13z" class="f2"/><path d="m598 410-10 131 40-14 9-136-39 19z" class="f2"/><path d="m588 549-10 140 41-9 9-146-40 15z" class="f2"/><path d="m641 389-9 136 44-15 7-142-42 21z" class="f2"/><path d="m631 533-8 146 45-9 7-152-44 15z" class="f2"/><path d="m687 366-7 142 48-16 6-148-47 22z" class="f2"/><path d="m679 517-7 152 49-10 6-159-48 17z" class="f2"/><path d="m738 342-6 148 53-18 5-154-52 24z" class="f2"/><path d="m732 499-7 159 55-11 5-166-53 18z" class="f2"/></g></svg>