<?xml version="1.0" encoding="UTF-8" standalone="no"?>
<svg
   xml:space="preserve"
   width="2530.6045"
   height="2530.6045"
   style="clip-rule:evenodd;fill-rule:evenodd;image-rendering:optimizeQuality;shape-rendering:geometricPrecision;text-rendering:geometricPrecision"
   viewBox="0 0 2089.6748 2090.6126"
   version="1.1"
   id="svg137"
   sodipodi:docname="favicon.svg"
   inkscape:version="1.4.2 (f4327f4, 2025-05-13)"
   inkscape:export-filename="favicon.png"
   inkscape:export-xdpi="96"
   inkscape:export-ydpi="96"
   xmlns:inkscape="http://www.inkscape.org/namespaces/inkscape"
   xmlns:sodipodi="http://sodipodi.sourceforge.net/DTD/sodipodi-0.dtd"
   xmlns="http://www.w3.org/2000/svg"
   xmlns:svg="http://www.w3.org/2000/svg"><sodipodi:namedview
     id="namedview137"
     pagecolor="#505050"
     bordercolor="#eeeeee"
     borderopacity="1"
     inkscape:showpageshadow="0"
     inkscape:pageopacity="0"
     inkscape:pagecheckerboard="0"
     inkscape:deskcolor="#505050"
     showgrid="false"
     inkscape:zoom="0.20517689"
     inkscape:cx="823.67953"
     inkscape:cy="1328.1223"
     inkscape:window-width="1920"
     inkscape:window-height="1009"
     inkscape:window-x="-8"
     inkscape:window-y="262"
     inkscape:window-maximized="1"
     inkscape:current-layer="svg137" /><defs
     id="defs1"><style
       id="style1">.f0{fill:#fff}.f2{fill:#ccc}.f1{fill:#e6e6e6}</style></defs><rect
     style="clip-rule:evenodd;fill:#008080;fill-rule:evenodd;stroke:#cccccc;stroke-width:0.826132;stroke-linecap:round;stroke-linejoin:round;paint-order:markers fill stroke;image-rendering:optimizeQuality;shape-rendering:geometricPrecision;text-rendering:geometricPrecision"
     id="rect137"
     width="2089.7864"
     height="2089.7864"
     x="0.017489867"
     y="0.413066"
     rx="383.76892" /><g
     id="Layer_x0020_1"
     transform="matrix(1.1356541,0,0,1.1356541,43.831618,589.34115)"
     style="opacity:1;mix-blend-mode:screen"><path
       d="m 1060,0 154,37 5,69 -160,-35 z"
       class="f1"
       id="path1" /><path
       d="m 1214,37 142,34 9,67 -146,-32 z"
       class="f2"
       id="path2" /><path
       d="m 1356,71 130,31 13,66 -134,-30 z"
       class="f1"
       id="path3" /><path
       d="m 1486,102 120,29 16,64 -123,-27 z"
       class="f2"
       id="path4" /><path
       d="m 1059,71 160,35 4,75 a 175527,175527 0 0 0 -166,-33 z"
       class="f0"
       id="path5" /><path
       d="m 1219,106 146,32 9,72 a 68602,68602 0 0 0 -151,-29 z"
       class="f2"
       id="path6" /><path
       d="m 1365,138 134,30 13,70 -138,-28 z"
       class="f0"
       id="path7" /><path
       d="m 1499,168 123,27 16,68 -126,-25 z"
       class="f1"
       id="path8" /><path
       d="m 1057,148 a 175527,175527 0 0 1 166,33 l 5,79 -173,-29 z"
       class="f1"
       id="path9" /><path
       d="m 1223,181 a 68602,68602 0 0 1 151,29 l 10,78 -156,-28 z"
       class="f0"
       id="path10" /><path
       d="m 1374,210 138,28 14,75 -142,-25 z"
       class="f2"
       id="path11" /><path
       d="m 1512,238 127,25 17,73 -130,-23 z"
       class="f2"
       id="path12" /><path
       d="m 1055,231 173,30 5,86 -179,-27 z"
       class="f2"
       id="path13" /><path
       d="m 1228,261 156,27 11,83 -162,-24 -5,-87 z"
       class="f2"
       id="path14" /><path
       d="m 1384,288 142,25 15,80 -146,-22 z"
       class="f0"
       id="path15" /><path
       d="m 1526,313 130,23 19,77 -134,-20 z"
       class="f2"
       id="path16" /><path
       d="m 1054,320 179,27 5,93 -186,-22 z"
       class="f0"
       id="path17" /><path
       d="m 1233,347 162,24 11,89 -168,-20 z"
       class="f2"
       id="path18" /><path
       d="m 1395,371 146,22 17,86 -152,-19 z"
       class="f2"
       id="path19" /><path
       d="m 1541,393 134,20 21,83 -138,-17 z"
       class="f1"
       id="path20" /><path
       d="m 1052,418 186,22 6,101 -195,-17 z"
       class="f2"
       id="path21" /><path
       d="m 1238,440 168,20 12,97 -174,-16 z"
       class="f0"
       id="path22" /><path
       d="m 1406,460 152,19 17,93 -157,-15 z"
       class="f1"
       id="path23" /><path
       d="m 1558,479 138,17 21,89 -142,-13 z"
       class="f2"
       id="path24" /><path
       d="m 1049,524 195,17 6,111 -203,-12 z"
       class="f1"
       id="path25" /><path
       d="m 1244,541 174,16 13,105 -181,-10 z"
       class="f1"
       id="path26" /><path
       d="m 1418,557 157,15 19,100 -163,-10 z"
       class="f0"
       id="path27" /><path
       d="m 1575,572 142,13 24,96 -147,-9 z"
       class="f1"
       id="path28" /><path
       d="m 1047,640 203,12 5,90 a 9019,9019 0 0 0 -210,-3 z"
       class="f2"
       id="path29" /><path
       d="m 1250,652 182,10 10,87 a 8049,8049 0 0 0 -187,-7 z"
       class="f2"
       id="path30" /><path
       d="m 1432,663 162,9 16,88 a 6634,6634 0 0 0 -168,-11 l -11,-86 z"
       class="f1"
       id="path31" /><path
       d="m 1594,672 147,9 22,93 a 4473,4473 0 0 0 -47,-5 5226,5226 0 0 0 -106,-9 z"
       class="f2"
       id="path32" /><path
       d="M 0,803 72,615 138,444 269,399 435,342 668,215 1060,0 l -6,322 -9,417 H 970 A 133408,133408 0 0 1 1001,96 73375,73375 0 0 0 641,277 58574,58574 0 0 0 422,388 v 1 l -143,44 -116,37 -22,6 -59,157 -63,167 z"
       class="f2"
       id="path33" /><g
       id="_1398928869520"><path
         d="m 114,552 19,-5 27,-73 -19,6 z"
         class="f2"
         id="path34" /><path
         d="m 132,551 -19,5 -29,76 19,-3 z"
         class="f2"
         id="path35" /><path
         d="m 162,473 -27,73 20,-5 27,-74 z"
         class="f2"
         id="path36" /><path
         d="m 101,633 -19,3 -31,81 20,-2 z"
         class="f2"
         id="path37" /><path
         d="m 133,551 -28,77 19,-3 29,-79 z"
         class="f2"
         id="path38" /><path
         d="m 69,720 -19,2 -30,78 20,-3 z"
         class="f2"
         id="path39" /><path
         d="m 103,633 -31,82 20,-2 31,-84 z"
         class="f2"
         id="path40" /><path
         d="m 71,720 -29,76 a 3450,3450 0 0 1 21,-2 l 27,-76 z"
         class="f2"
         id="path41" /><path
         d="m 184,467 -27,74 20,-5 27,-76 z"
         class="f2"
         id="path42" /><path
         d="m 155,545 -29,79 21,-4 29,-80 z"
         class="f2"
         id="path43" /><path
         d="m 125,629 a 58866,58866 0 0 0 -31,84 l 21,-3 30,-85 z"
         class="f2"
         id="path44" /><path
         d="m 92,718 -27,75 11,-1 10,-2 27,-75 z"
         class="f2"
         id="path45" /><path
         d="m 206,460 -27,75 22,-5 26,-77 z"
         class="f2"
         id="path46" /><path
         d="m 178,540 -29,80 21,-4 29,-82 z"
         class="f2"
         id="path47" /><path
         d="m 147,625 -30,85 21,-2 31,-87 z"
         class="f2"
         id="path48" /><path
         d="m 115,715 -27,75 23,-3 25,-74 z"
         class="f2"
         id="path49" /><path
         d="m 229,453 -27,76 a 3987,3987 0 0 1 23,-5 l 27,-78 z"
         class="f2"
         id="path50" /><path
         d="m 201,534 -29,82 23,-4 28,-84 z"
         class="f2"
         id="path51" /><path
         d="m 171,620 -31,88 23,-3 30,-89 z"
         class="f2"
         id="path52" /><path
         d="m 138,713 -25,74 23,-3 25,-74 z"
         class="f2"
         id="path53" /><path
         d="m 254,445 -27,78 23,-6 27,-79 z"
         class="f2"
         id="path54" /><path
         d="m 225,528 -28,83 23,-4 29,-85 z"
         class="f2"
         id="path55" /><path
         d="m 195,616 -30,89 23,-2 31,-91 a 5947,5947 0 0 1 -24,4 z"
         class="f2"
         id="path56" /><path
         d="m 163,710 -25,74 24,-3 25,-73 z"
         class="f2"
         id="path57" /><path
         d="m 251,522 -29,85 25,-5 28,-87 z"
         class="f2"
         id="path58" /><path
         d="m 279,437 -27,80 24,-6 27,-81 z"
         class="f2"
         id="path59" /><path
         d="m 221,611 -30,91 24,-2 30,-93 z"
         class="f2"
         id="path60" /><path
         d="m 189,708 -24,73 25,-3 23,-73 z"
         class="f2"
         id="path61" /><path
         d="m 305,429 -26,81 25,-6 26,-83 z"
         class="f2"
         id="path62" /><path
         d="m 303,509 -26,6 -28,87 26,-5 c 9,-30 18,-60 28,-88 z"
         class="f2"
         id="path63" /><path
         d="m 332,421 -26,82 27,-6 25,-84 z"
         class="f2"
         id="path64" /><path
         d="m 331,502 -26,6 -28,89 27,-5 z"
         class="f2"
         id="path65" /><path
         d="m 361,412 -26,84 28,-7 25,-85 z"
         class="f2"
         id="path66" /><path
         d="m 361,494 -27,7 -28,90 28,-5 z"
         class="f2"
         id="path67" /><path
         d="m 364,494 -27,92 29,-6 27,-94 z"
         class="f2"
         id="path68" /><path
         d="m 391,403 -26,86 29,-8 25,-87 z"
         class="f2"
         id="path69" /><path
         d="m 273,602 -26,5 -30,92 26,-2 z"
         class="f2"
         id="path70" /><path
         d="m 302,597 -27,5 -29,95 27,-3 z"
         class="f2"
         id="path71" /><path
         d="m 333,592 -28,4 -30,97 29,-3 z"
         class="f2"
         id="path72" /><path
         d="m 335,591 -29,99 a 4882,4882 0 0 1 30,-3 l 29,-101 z"
         class="f2"
         id="path73" /><path
         d="m 242,702 -26,3 -24,73 27,-3 z"
         class="f2"
         id="path74" /><path
         d="m 271,699 -27,3 -23,73 28,-3 z"
         class="f2"
         id="path75" /><path
         d="m 302,696 -29,3 -22,73 30,-3 z"
         class="f2"
         id="path76" /><path
         d="m 304,696 -21,73 31,-3 20,-73 z"
         class="f2"
         id="path77" /></g><g
       id="_1398928891728"><path
         d="m 338,764 22,-77 -23,5 -21,74 z"
         class="f1"
         id="path78" /><path
         d="m 364,762 22,-80 -24,5 -21,77 z"
         class="f1"
         id="path79" /><path
         d="m 392,760 21,-84 -25,5 -21,81 z"
         class="f1"
         id="path80" /><path
         d="m 422,758 21,-88 -27,6 -22,84 z"
         class="f1"
         id="path81" /><path
         d="m 453,756 21,-92 -29,6 -21,88 z"
         class="f1"
         id="path82" /><path
         d="m 487,754 21,-97 -31,7 -21,92 z"
         class="f1"
         id="path83" /><path
         d="m 524,752 20,-102 -33,7 -21,97 z"
         class="f1"
         id="path84" /><path
         d="m 563,750 20,-107 -36,7 -20,102 z"
         class="f1"
         id="path85" /><path
         d="m 606,748 19,-113 -38,7 -20,108 z"
         class="f1"
         id="path86" /><path
         d="m 653,746 18,-120 -42,8 -19,114 z"
         class="f1"
         id="path87" /><path
         d="m 703,744 18,-127 a 8349,8349 0 0 0 -46,8 35190,35190 0 0 0 -18,121 z"
         class="f1"
         id="path88" /><path
         d="m 759,742 16,-135 -50,9 -17,128 z"
         class="f1"
         id="path89" /><path
         d="m 820,741 14,-145 -55,10 -15,136 z"
         class="f1"
         id="path90" /><path
         d="m 888,740 11,-156 -60,11 -13,146 h 12 z"
         class="f1"
         id="path91" /><path
         d="m 964,739 8,-167 -67,11 -11,157 z"
         class="f1"
         id="path92" /><path
         d="m 972,562 8,-168 -62,19 -12,161 z"
         class="f1"
         id="path93" /><path
         d="m 981,386 7,-146 -59,24 -11,140 z"
         class="f1"
         id="path94" /><path
         d="m 989,233 6,-128 -56,28 -9,123 z"
         class="f1"
         id="path95" /><path
         d="m 935,135 -52,25 -12,120 54,-22 z"
         class="f1"
         id="path96" /><path
         d="m 879,163 -47,23 -15,116 a 9181,9181 0 0 1 49,-20 z"
         class="f1"
         id="path97" /><path
         d="m 828,188 -44,22 -17,113 45,-19 z"
         class="f1"
         id="path98" /><path
         d="m 780,212 -41,20 -18,110 a 11648,11648 0 0 0 42,-17 z"
         class="f1"
         id="path99" /><path
         d="m 736,234 -38,19 -20,107 39,-16 z"
         class="f1"
         id="path100" /><path
         d="m 694,255 -35,18 -21,104 a 9857,9857 0 0 1 36,-16 z"
         class="f1"
         id="path101" /><path
         d="m 656,274 -33,17 -22,101 34,-14 z"
         class="f1"
         id="path102" /><path
         d="m 620,292 -31,16 -23,99 32,-13 z"
         class="f1"
         id="path103" /><path
         d="m 586,309 -29,15 a 41114,41114 0 0 0 -24,97 l 30,-13 z"
         class="f1"
         id="path104" /><path
         d="m 554,325 -28,14 -23,95 28,-12 z"
         class="f1"
         id="path105" /><path
         d="m 524,341 -26,13 -24,92 26,-11 a 58509,58509 0 0 1 24,-94 z"
         class="f1"
         id="path106" /><path
         d="m 496,355 -25,12 -24,91 25,-11 z"
         class="f1"
         id="path107" /><path
         d="m 469,369 -23,11 -25,89 24,-10 z"
         class="f1"
         id="path108" /><path
         d="m 444,381 -22,12 -25,87 22,-10 z"
         class="f1"
         id="path109" /><path
         d="m 396,485 -27,94 22,-8 27,-96 z"
         class="f1"
         id="path110" /><path
         d="m 367,584 -28,102 22,-5 29,-104 z"
         class="f1"
         id="path111" /><path
         d="m 420,474 -27,96 24,-7 26,-99 z"
         class="f1"
         id="path112" /><path
         d="m 392,576 -29,105 24,-5 29,-108 z"
         class="f1"
         id="path113" /><path
         d="m 445,463 -26,99 25,-9 26,-100 z"
         class="f1"
         id="path114" /><path
         d="m 418,568 a 41223,41223 0 0 0 -29,107 l 26,-5 28,-111 z"
         class="f1"
         id="path115" /><path
         d="m 473,452 -26,101 27,-9 25,-103 z"
         class="f1"
         id="path116" /><path
         d="m 445,559 -28,110 27,-5 28,-114 z"
         class="f1"
         id="path117" /><path
         d="m 501,440 -25,103 28,-9 26,-106 a 9427,9427 0 0 0 -29,12 z"
         class="f1"
         id="path118" /><path
         d="m 475,549 a 29022,29022 0 0 0 -28,114 l 29,-6 27,-117 -29,9 z"
         class="f1"
         id="path119" /><path
         d="m 532,427 -25,106 31,-10 24,-109 z"
         class="f1"
         id="path120" /><path
         d="m 506,539 -28,118 32,-7 26,-121 z"
         class="f1"
         id="path121" /><path
         d="m 565,413 -25,109 33,-10 24,-112 a 8227,8227 0 0 1 -32,13 z"
         class="f1"
         id="path122" /><path
         d="m 539,529 -27,121 34,-7 26,-125 z"
         class="f1"
         id="path123" /><path
         d="m 599,398 a 38360,38360 0 0 0 -23,113 l 35,-12 23,-115 a 6504,6504 0 0 0 -35,14 z"
         class="f1"
         id="path124" /><path
         d="m 574,517 a 35118,35118 0 0 0 -25,125 l 36,-7 25,-129 z"
         class="f1"
         id="path125" /><path
         d="m 637,383 a 39100,39100 0 0 0 -23,115 l 38,-12 21,-118 z"
         class="f1"
         id="path126" /><path
         d="m 613,505 -25,130 39,-8 23,-134 z"
         class="f1"
         id="path127" /><path
         d="m 677,366 -22,119 41,-12 20,-123 z"
         class="f1"
         id="path128" /><path
         d="m 654,492 -24,134 42,-8 22,-138 z"
         class="f1"
         id="path129" /><path
         d="m 719,349 -20,122 44,-13 19,-127 z"
         class="f1"
         id="path130" /><path
         d="m 698,479 -22,138 46,-9 20,-143 z"
         class="f1"
         id="path131" /><path
         d="m 766,330 -19,126 48,-14 17,-131 z"
         class="f1"
         id="path132" /><path
         d="m 746,464 -20,144 50,-10 18,-149 z"
         class="f1"
         id="path133" /><path
         d="m 816,309 -17,131 52,-16 14,-135 z"
         class="f1"
         id="path134" /><path
         d="m 798,448 -17,149 54,-10 15,-155 a 22561,22561 0 0 0 -52,16 z"
         class="f1"
         id="path135" /><path
         d="m 870,287 -14,136 57,-17 11,-140 z"
         class="f1"
         id="path136" /><path
         d="m 855,431 -15,155 60,-11 12,-161 z"
         class="f1"
         id="path137" /></g></g></svg>
