<svg xmlns="http://www.w3.org/2000/svg" version="1.1" xmlns:xlink="http://www.w3.org/1999/xlink" width="1629.4211" height="1629.4211"><svg xml:space="preserve" viewBox="0 0 1629.4211 1629.4211" version="1.1" id="SvgjsSvg2012" sodipodi:docname="sketch cpc.svg" width="1629.4211" height="1629.4211" xmlns:inkscape="http://www.inkscape.org/namespaces/inkscape" xmlns:sodipodi="http://sodipodi.sourceforge.net/DTD/sodipodi-0.dtd" xmlns="http://www.w3.org/2000/svg" xmlns:svg="http://www.w3.org/2000/svg"><sodipodi:namedview id="SvgjsSodipodi:namedview2011" pagecolor="#505050" bordercolor="#eeeeee" borderopacity="1" inkscape:showpageshadow="0" inkscape:pageopacity="0" inkscape:pagecheckerboard="0" inkscape:deskcolor="#505050" showgrid="false"><inkscape:page x="0" y="0" width="1629.4211" height="1629.4211" id="SvgjsInkscape:page2010" margin="0" bleed="0"></inkscape:page></sodipodi:namedview><defs id="SvgjsDefs2009"><style id="SvgjsStyle2008">
.f0 { 
    opacity:0.2;
    fill:rgb(28, 102, 151);
}
.f1 { 
    opacity:0.8;
    fill:rgb(28, 102, 151);
}
.f2 { 
    opacity:0.5;
    fill:rgb(28, 102, 151);
}</style><style class="darkreader darkreader--sync" media="screen"></style></defs><rect style="clip-rule: evenodd; fill: rgb(230, 230, 230); fill-rule: evenodd; stroke: rgb(204, 204, 204); stroke-width: 0.643886; stroke-linecap: round; stroke-linejoin: round; paint-order: markers; shape-rendering: geometricprecision; text-rendering: geometricprecision; --darkreader-inline-fill: var(--darkreader-text-e6e6e6, #dad7d2); --darkreader-inline-stroke: var(--darkreader-text-cccccc, #c9c5bf);" id="SvgjsRect2007" width="1628.7772" height="1628.7772" x="0.32194301" y="0.32194301" rx="299.1091" data-darkreader-inline-fill="" data-darkreader-inline-stroke=""></rect><g id="SvgjsG2006" transform="translate(40.710577,381.71058)"><path d="m 918,0 158,46 3,85 -161,-42 z" class="f2" id="SvgjsPath2005"></path><path d="m 1076,46 142,42 5,82 -144,-39 z" class="f1" id="SvgjsPath2004"></path><path d="m 1218,88 129,38 8,78 -132,-34 z" class="f2" id="SvgjsPath2003"></path><path d="m 1347,126 118,34 9,76 -119,-32 z" class="f1" id="SvgjsPath2002"></path><path d="m 918,89 161,42 3,88 -165,-38 z" class="f0" id="SvgjsPath2001"></path><path d="m 1079,131 144,39 6,84 -147,-35 z" class="f1" id="SvgjsPath2000"></path><path d="m 1223,170 132,34 7,82 -133,-32 z" class="f0" id="SvgjsPath1999"></path><path d="m 1355,204 119,32 9,78 -121,-28 z" class="f2" id="SvgjsPath1998"></path><path d="m 917,181 165,38 3,93 -168,-34 z" class="f2" id="SvgjsPath1997"></path><path d="m 1082,219 147,35 6,88 -150,-30 z" class="f0" id="SvgjsPath1996"></path><path d="m 1229,254 133,32 9,84 -136,-28 z" class="f1" id="SvgjsPath1995"></path><path d="m 1362,286 121,28 10,81 -122,-25 z" class="f1" id="SvgjsPath1994"></path><path d="m 917,278 168,34 3,96 -172,-29 z" class="f1" id="SvgjsPath1993"></path><path d="m 1085,312 150,30 6,92 -153,-26 z" class="f1" id="SvgjsPath1992"></path><path d="m 1235,342 136,28 8,88 -138,-24 z" class="f0" id="SvgjsPath1991"></path><path d="m 1371,370 122,25 11,84 -125,-21 z" class="f1" id="SvgjsPath1990"></path><path d="m 916,379 172,29 3,100 -175,-24 z" class="f0" id="SvgjsPath1989"></path><path d="m 1088,408 153,26 7,95 -157,-21 z" class="f1" id="SvgjsPath1988"></path><path d="m 1241,434 138,24 9,91 -140,-20 z" class="f1" id="SvgjsPath1987"></path><path d="m 1379,458 125,21 10,88 -126,-18 z" class="f2" id="SvgjsPath1986"></path><path d="m 916,484 175,24 4,105 -180,-18 z" class="f1" id="SvgjsPath1985"></path><path d="m 1091,508 157,21 6,100 -159,-16 z" class="f0" id="SvgjsPath1984"></path><path d="m 1248,529 140,20 9,95 -143,-15 z" class="f2" id="SvgjsPath1983"></path><path d="m 1388,549 126,18 11,90 -128,-13 z" class="f1" id="SvgjsPath1982"></path><path d="m 915,595 180,18 3,110 -183,-12 z" class="f2" id="SvgjsPath1981"></path><path d="m 1095,613 159,16 7,104 -163,-10 z" class="f2" id="SvgjsPath1980"></path><path d="m 1254,629 143,15 9,99 -145,-10 z" class="f0" id="SvgjsPath1979"></path><path d="m 1397,644 128,13 12,94 -131,-8 z" class="f2" id="SvgjsPath1978"></path><path d="m 915,711 183,12 3,87 c -61,-2 -123,-3 -187,-3 z" class="f1" id="SvgjsPath1977"></path><path d="m 1098,723 163,10 5,83 c -53,-2 -109,-5 -165,-6 z" class="f1" id="SvgjsPath1976"></path><path d="m 1261,733 145,10 8,83 -148,-10 z" class="f2" id="SvgjsPath1975"></path><path d="m 1406,743 131,8 11,88 -42,-4 -92,-9 z" class="f1" id="SvgjsPath1974"></path><path d="M 0,866 31,687 61,512 176,465 325,403 537,259 705,145 918,0 l -1,188 -1,193 a 96519,96519 0 0 0 -2,426 h -66 l 3,-181 3,-176 3,-168 3,-163 A 63039,63039 0 0 0 319,453 47434,47434 0 0 0 88,539 L 69,546 42,705 16,863 Z" class="f1" id="SvgjsPath1973"></path><path d="m 57,623 17,-4 13,-75 -17,6 z" class="f1" id="SvgjsPath1972"></path><path d="m 73,623 -16,5 -13,75 17,-3 z" class="f1" id="SvgjsPath1971"></path><path d="m 88,543 -12,75 17,-5 12,-76 z" class="f1" id="SvgjsPath1970"></path><path d="m 60,704 -17,4 -13,78 17,-2 z" class="f1" id="SvgjsPath1969"></path><path d="m 75,622 -13,78 17,-4 13,-79 z" class="f1" id="SvgjsPath1968"></path><path d="m 46,788 -17,2 -12,73 17,-3 z" class="f1" id="SvgjsPath1967"></path><path d="m 61,704 -13,80 18,-2 13,-82 z" class="f1" id="SvgjsPath1966"></path><path d="m 48,788 -12,72 17,-3 12,-71 z" class="f1" id="SvgjsPath1965"></path><path d="m 107,536 -12,77 18,-6 12,-78 z" class="f1" id="SvgjsPath1964"></path><path d="m 94,617 -13,79 18,-4 13,-80 z" class="f1" id="SvgjsPath1963"></path><path d="m 80,700 -13,81 18,-2 13,-83 z" class="f1" id="SvgjsPath1962"></path><path d="m 66,786 -11,71 10,-1 8,-2 11,-70 z" class="f1" id="SvgjsPath1961"></path><path d="m 127,529 -13,78 19,-6 13,-79 z" class="f1" id="SvgjsPath1960"></path><path d="m 114,611 -13,81 19,-4 13,-82 z" class="f1" id="SvgjsPath1959"></path><path d="m 100,696 -13,83 19,-2 13,-85 z" class="f1" id="SvgjsPath1958"></path><path d="m 86,784 -11,70 19,-3 11,-69 z" class="f1" id="SvgjsPath1957"></path><path d="m 147,521 -12,80 20,-6 12,-81 z" class="f1" id="SvgjsPath1956"></path><path d="m 134,605 -13,82 20,-4 13,-83 z" class="f1" id="SvgjsPath1955"></path><path d="m 121,692 -14,85 20,-3 13,-86 z" class="f1" id="SvgjsPath1954"></path><path d="m 107,781 -11,70 20,-3 11,-69 z" class="f1" id="SvgjsPath1953"></path><path d="m 169,513 -13,82 21,-7 12,-82 z" class="f1" id="SvgjsPath1952"></path><path d="m 156,599 -13,84 20,-4 13,-86 z" class="f1" id="SvgjsPath1951"></path><path d="m 142,688 -13,86 21,-2 13,-89 z" class="f1" id="SvgjsPath1950"></path><path d="m 128,779 -10,69 21,-2 10,-69 z" class="f1" id="SvgjsPath1949"></path><path d="m 178,593 -13,85 22,-4 13,-87 z" class="f1" id="SvgjsPath1948"></path><path d="m 191,505 -12,83 21,-6 13,-85 z" class="f1" id="SvgjsPath1947"></path><path d="m 165,683 -13,89 21,-3 13,-90 z" class="f1" id="SvgjsPath1946"></path><path d="m 151,777 -10,68 22,-2 9,-69 z" class="f1" id="SvgjsPath1945"></path><path d="m 214,497 -12,84 23,-6 12,-87 z" class="f1" id="SvgjsPath1944"></path><path d="m 224,580 -22,6 -13,87 22,-4 z" class="f1" id="SvgjsPath1943"></path><path d="m 239,488 -12,86 23,-7 12,-88 z" class="f1" id="SvgjsPath1942"></path><path d="m 250,572 -24,7 -13,89 24,-5 z" class="f1" id="SvgjsPath1941"></path><path d="m 265,478 -13,89 25,-8 12,-90 z" class="f1" id="SvgjsPath1940"></path><path d="m 276,565 -24,7 -13,91 25,-5 z" class="f1" id="SvgjsPath1939"></path><path d="m 279,564 -13,94 27,-6 12,-95 z" class="f1" id="SvgjsPath1938"></path><path d="m 291,468 -12,91 26,-8 12,-92 z" class="f1" id="SvgjsPath1937"></path><path d="m 211,674 -23,4 -13,91 23,-3 z" class="f1" id="SvgjsPath1936"></path><path d="m 236,669 -23,4 -13,93 24,-3 z" class="f1" id="SvgjsPath1935"></path><path d="m 263,663 -25,5 -12,95 25,-3 z" class="f1" id="SvgjsPath1934"></path><path d="m 266,663 -13,97 26,-3 13,-99 z" class="f1" id="SvgjsPath1933"></path><path d="m 197,771 -23,3 -10,69 23,-3 z" class="f1" id="SvgjsPath1932"></path><path d="m 223,769 -24,2 -10,69 25,-3 z" class="f1" id="SvgjsPath1931"></path><path d="m 250,766 -25,2 -9,69 25,-2 z" class="f1" id="SvgjsPath1930"></path><path d="m 252,765 -9,69 27,-2 9,-70 z" class="f1" id="SvgjsPath1929"></path><path d="m 291,830 9,-73 -19,4 -9,71 z" class="f2" id="SvgjsPath1928"></path><path d="m 314,828 9,-76 -21,4 -9,74 z" class="f2" id="SvgjsPath1927"></path><path d="m 338,826 9,-80 -22,5 -9,77 z" class="f2" id="SvgjsPath1926"></path><path d="m 364,824 9,-83 -24,5 -9,80 z" class="f2" id="SvgjsPath1925"></path><path d="m 392,822 8,-87 -25,5 -9,84 z" class="f2" id="SvgjsPath1924"></path><path d="m 422,820 8,-92 -27,6 -9,88 z" class="f2" id="SvgjsPath1923"></path><path d="m 454,818 8,-97 -29,7 -9,92 z" class="f2" id="SvgjsPath1922"></path><path d="m 489,817 8,-103 -32,7 -9,97 z" class="f2" id="SvgjsPath1921"></path><path d="m 526,815 8,-109 -35,7 -7,103 z" class="f2" id="SvgjsPath1920"></path><path d="m 567,813 7,-115 -37,7 -8,110 z" class="f2" id="SvgjsPath1919"></path><path d="m 612,811 7,-122 -41,8 -7,116 z" class="f2" id="SvgjsPath1918"></path><path d="m 661,810 6,-131 -45,9 -6,123 z" class="f2" id="SvgjsPath1917"></path><path d="m 715,808 5,-140 -49,10 -6,132 z" class="f2" id="SvgjsPath1916"></path><path d="m 775,807 4,-151 -54,11 -5,141 h 11 z" class="f2" id="SvgjsPath1915"></path><path d="m 842,807 3,-163 -61,11 -3,152 z" class="f2" id="SvgjsPath1914"></path><path d="m 845,633 3,-174 -59,20 -4,167 z" class="f2" id="SvgjsPath1913"></path><path d="m 848,450 3,-161 -56,26 -5,155 z" class="f2" id="SvgjsPath1912"></path><path d="m 851,280 4,-150 -55,33 -5,144 z" class="f2" id="SvgjsPath1911"></path><path d="m 795,166 -50,30 -6,138 51,-25 z" class="f2" id="SvgjsPath1910"></path><path d="m 741,198 -45,28 -8,133 46,-23 z" class="f2" id="SvgjsPath1909"></path><path d="m 692,228 -42,26 -9,128 43,-21 z" class="f2" id="SvgjsPath1908"></path><path d="m 646,256 -38,24 -10,123 39,-20 z" class="f2" id="SvgjsPath1907"></path><path d="m 605,282 -36,21 -10,119 36,-18 z" class="f2" id="SvgjsPath1906"></path><path d="m 566,305 -33,20 -10,115 33,-16 z" class="f2" id="SvgjsPath1905"></path><path d="m 530,327 -30,19 -11,111 31,-15 z" class="f2" id="SvgjsPath1904"></path><path d="m 497,347 -28,18 -12,108 29,-14 z" class="f2" id="SvgjsPath1903"></path><path d="m 466,366 -26,17 -12,105 27,-14 z" class="f2" id="SvgjsPath1902"></path><path d="m 437,384 -25,16 -11,102 25,-13 z" class="f2" id="SvgjsPath1901"></path><path d="m 410,401 -23,14 -12,100 24,-12 z" class="f2" id="SvgjsPath1900"></path><path d="m 385,417 -22,13 -12,97 22,-11 z" class="f2" id="SvgjsPath1899"></path><path d="m 361,431 -21,13 -11,94 20,-10 z" class="f2" id="SvgjsPath1898"></path><path d="m 339,445 c -7,4 -13,9 -20,12 l -11,92 19,-10 z" class="f2" id="SvgjsPath1897"></path><path d="m 307,555 -12,95 19,-7 12,-98 z" class="f2" id="SvgjsPath1896"></path><path d="m 294,656 -13,100 20,-5 13,-102 z" class="f2" id="SvgjsPath1895"></path><path d="m 328,544 -12,98 21,-8 12,-101 z" class="f2" id="SvgjsPath1894"></path><path d="m 315,648 -12,103 21,-5 12,-106 z" class="f2" id="SvgjsPath1893"></path><path d="m 351,532 -12,102 22,-9 12,-104 z" class="f2" id="SvgjsPath1892"></path><path d="m 338,639 -12,106 22,-5 12,-109 z" class="f2" id="SvgjsPath1891"></path><path d="m 375,520 -12,104 23,-9 12,-106 z" class="f2" id="SvgjsPath1890"></path><path d="m 362,630 -12,110 23,-6 13,-112 z" class="f2" id="SvgjsPath1889"></path><path d="m 400,508 -12,107 26,-10 11,-110 z" class="f2" id="SvgjsPath1888"></path><path d="m 388,621 -12,113 25,-6 12,-116 z" class="f2" id="SvgjsPath1887"></path><path d="m 428,494 -12,110 27,-10 11,-114 z" class="f2" id="SvgjsPath1886"></path><path d="m 415,611 -12,116 28,-6 11,-120 z" class="f2" id="SvgjsPath1885"></path><path d="m 457,479 -12,114 29,-11 11,-117 z" class="f2" id="SvgjsPath1884"></path><path d="m 445,600 -12,121 30,-7 11,-125 z" class="f2" id="SvgjsPath1883"></path><path d="m 488,464 -11,118 31,-12 11,-122 z" class="f2" id="SvgjsPath1882"></path><path d="m 476,588 -11,125 32,-6 11,-130 z" class="f2" id="SvgjsPath1881"></path><path d="m 522,447 -11,122 34,-12 10,-126 z" class="f2" id="SvgjsPath1880"></path><path d="m 511,576 -11,130 34,-8 11,-134 z" class="f2" id="SvgjsPath1879"></path><path d="m 558,429 -10,127 37,-14 9,-131 z" class="f2" id="SvgjsPath1878"></path><path d="m 548,563 -11,135 38,-8 9,-140 z" class="f2" id="SvgjsPath1877"></path><path d="m 598,410 -10,131 40,-14 9,-136 z" class="f2" id="SvgjsPath1876"></path><path d="m 588,549 -10,140 41,-9 9,-146 z" class="f2" id="SvgjsPath1875"></path><path d="m 641,389 -9,136 44,-15 7,-142 z" class="f2" id="SvgjsPath1874"></path><path d="m 631,533 -8,146 45,-9 7,-152 z" class="f2" id="SvgjsPath1873"></path><path d="m 687,366 -7,142 48,-16 6,-148 z" class="f2" id="SvgjsPath1872"></path><path d="m 679,517 -7,152 49,-10 6,-159 z" class="f2" id="SvgjsPath1871"></path><path d="m 738,342 -6,148 53,-18 5,-154 z" class="f2" id="SvgjsPath1870"></path><path d="m 732,499 -7,159 55,-11 5,-166 z" class="f2" id="SvgjsPath1869"></path></g></svg><style>@media (prefers-color-scheme: light) { :root { filter: none; } }
@media (prefers-color-scheme: dark) { :root { filter: none; } }
</style></svg>