<?xml version="1.0" encoding="UTF-8" standalone="no"?>
<!-- Generator: visioncortex VTracer -->

<svg
   id="svg"
   version="1.1"
   style="display: block;"
   viewBox="0 0 1024 1024"
   sodipodi:docname="alimentos01.svg"
   xml:space="preserve"
   inkscape:version="1.4.2 (f4327f4, 2025-05-13)"
   xmlns:inkscape="http://www.inkscape.org/namespaces/inkscape"
   xmlns:sodipodi="http://sodipodi.sourceforge.net/DTD/sodipodi-0.dtd"
   xmlns="http://www.w3.org/2000/svg"
   xmlns:svg="http://www.w3.org/2000/svg"><sodipodi:namedview
     id="namedview9"
     pagecolor="#505050"
     bordercolor="#eeeeee"
     borderopacity="1"
     inkscape:showpageshadow="0"
     inkscape:pageopacity="0"
     inkscape:pagecheckerboard="0"
     inkscape:deskcolor="#505050"
     inkscape:zoom="0.39404297"
     inkscape:cx="373.05576"
     inkscape:cy="805.74969"
     inkscape:window-width="1920"
     inkscape:window-height="1009"
     inkscape:window-x="1272"
     inkscape:window-y="375"
     inkscape:window-maximized="1"
     inkscape:current-layer="svg" /><style
     id="style10">.destacado { display: block;fill: #cccccc; }
.formas { display: inline;fill: #555555; }
.fondo { display: inline;fill: #e9e9e9; }
</style><defs
     id="defs9"><inkscape:path-effect
       effect="fillet_chamfer"
       id="path-effect10"
       is_visible="true"
       lpeversion="1"
       nodesatellites_param="F,0,0,1,0,0,0,1 @ F,0,0,1,0,0,0,1 @ F,0,0,1,0,0,0,1 @ F,0,0,1,0,0,0,1 @ F,0,0,1,0,0,0,1 @ F,0,0,1,0,0,0,1 @ F,0,0,1,0,0,0,1 @ F,0,0,1,0,0,0,1 @ F,0,0,1,0,0,0,1 @ F,0,0,1,0,0,0,1 @ F,0,0,1,0,0,0,1 @ F,0,0,1,0,0,0,1 @ F,0,0,1,0,0,0,1 @ F,0,0,1,0,0,0,1 @ F,0,0,1,0,0,0,1 @ F,0,0,1,0,0,0,1 @ F,0,0,1,0,0,0,1 @ F,0,0,1,0,0,0,1 @ F,0,0,1,0,0,0,1 @ F,0,0,1,0,0,0,1 @ F,0,0,1,0,0,0,1 @ F,0,0,1,0,0,0,1 @ F,0,0,1,0,0,0,1 @ F,0,0,1,0,0,0,1 @ F,0,0,1,0,0,0,1 @ F,0,0,1,0,0,0,1 @ F,0,0,1,0,0,0,1 @ F,0,0,1,0,0,0,1 @ F,0,0,1,0,0,0,1 @ F,0,0,1,0,0,0,1 @ F,0,0,1,0,0,0,1 @ F,0,0,1,0,0,0,1 @ F,0,0,1,0,0,0,1 @ F,0,0,1,0,0,0,1 @ F,0,0,1,0,7.9153143,0,1 @ F,0,0,1,0,0,0,1 @ F,0,0,1,0,0,0,1 @ F,0,0,1,0,0,0,1"
       radius="0"
       unit="px"
       method="auto"
       mode="F"
       chamfer_steps="1"
       flexible="false"
       use_knot_distance="true"
       apply_no_radius="true"
       apply_with_radius="true"
       only_selected="false"
       hide_knots="false" /></defs><path
     d="m 0,0 c 337.92,0 675.84,0 1024,0 0,337.92 0,675.84 0,1024 -337.92,0 -675.84,0 -1024,0 C 0,686.08 0,348.16 0,0 Z"
     id="fondo"
     class="fondo" /><path
     id="fondo-5"
     style="stroke-width:0.570362"
     class="formas"
     d="M 0,690.87891 V 1024 H 1024 V 690.87891 H 786.94141 c 2.39823,56.98417 4.70908,113.97105 6.89257,170.96289 -66.945,16.21263 -134.08067,31.64598 -201.14257,47.37109 -166.21697,40.22301 -196.96595,43.68923 -216.91993,45.39844 -54.01121,-27.08853 -107.82156,-54.59202 -161.41406,-82.5 5.14023,-60.4225 10.45336,-120.83113 15.8418,-181.23242 z" /><path
     d="m 592.69156,909.21274 c 67.0619,-15.72511 134.19658,-31.15737 201.14158,-47.37 -7.10511,-185.45167 -15.54713,-370.85721 -24.02404,-556.25284 -0.33356,-10.51939 1.85664,-23.99408 -13.08787,-20.30008 -17.76057,-1.29843 -35.59554,-1.76616 -53.30094,-3.70998 -4.36724,-36.37618 -10.05663,-73.32376 -26.14586,-106.66552 -14.99196,-32.18302 -41.18826,-63.88423 -77.96334,-70.21018 -12.91474,-3.11303 -28.15013,2.54739 -38.82889,-7.543558 -25.41554,-17.189447 -60.46344,-16.015425 -85.32366,1.625768 -30.94675,22.10531 -48.20472,58.07737 -60.53265,93.02717 -8.15439,22.87485 -11.50495,46.9776 -15.32379,70.82509 -11.04897,-0.0641 -29.43164,-8.20472 -23.81916,10.14798 4.34785,225.31597 9.37389,450.62284 15.42233,675.89962 -0.24694,13.43687 20.96021,-1.0745 29.9336,-0.0538 57.3561,-12.82341 114.60943,-26.10309 171.85269,-39.41953 z m 87.66149,-575.18599 c -12.90045,-11.3514 -1.82175,-36.10461 15.72615,-31.5257 18.57492,1.70404 21.41358,29.28085 4.38803,35.87795 -6.7656,4.13604 -15.28311,1.47108 -20.11418,-4.35225 z m -220.39684,0.29143 c -11.42594,-9.46885 -4.98909,-32.25365 10.77049,-32.00596 17.90501,-4.06336 25.72125,18.58511 16.62009,30.92545 -5.79296,9.14794 -20.78032,9.33572 -27.39058,1.08051 z m 182.61813,-59.32284 c -4.37738,-48.87623 -15.70659,-98.44527 -42.00588,-140.45318 -9.32046,-14.4724 17.03686,2.7731 22.09067,6.94863 16.83987,12.87471 29.4305,30.38737 37.26296,50.01664 12.51218,26.34146 21.07839,54.92523 23.1359,84.05656 1.02189,6.29076 -8.52828,2.00947 -12.54524,3.26139 -9.00342,-0.5002 -18.63727,1.45154 -27.11085,-1.66437 z m -92.53205,-2.41424 c -20.66608,-1.28463 -41.50123,-1.17154 -62.01632,-4.10124 -4.58628,-9.75728 3.85792,-24.67192 5.4386,-36.18155 9.84416,-34.14382 24.22339,-69.95439 53.48502,-91.99384 11.29769,-11.97559 27.33801,-9.62855 33.69465,5.83205 22.08396,33.85066 33.62597,73.83994 38.58322,113.68547 5.10816,13.83232 -3.76787,18.74389 -16.49472,15.0928 -17.56506,-0.74171 -35.12806,-1.53192 -52.69045,-2.33369 z m -127.00792,-9.99856 c 0.60572,-23.29762 5.38633,-46.66772 12.41019,-68.90864 11.52388,-33.61819 32.43387,-69.03304 67.95668,-80.94996 11.09203,-2.83191 27.20702,-5.55252 35.69305,2.15832 -12.35386,11.01921 -25.25657,22.19109 -34.25381,36.49443 -22.4356,32.61104 -33.91549,71.06652 -40.98075,109.62364 -8.58212,8.96788 -26.61948,1.50241 -38.97116,2.01037 z m -48.62273,688.19962 c -21.04392,-34.85598 -41.91668,-69.81497 -62.86403,-104.72899 -31.21787,8.21297 -62.27993,17.1049 -93.6699,24.61238 28.6617,-14.16434 57.91981,-27.10939 86.90052,-40.61538 4.59941,-184.85362 5.66324,-369.78004 10.41797,-554.62928 -15.82868,0.50693 -31.95051,-1.27812 -47.53437,1.41224 -3.26754,24.96459 -4.56331,50.65927 -7.13732,75.89311 -15.2829,173.13725 -31.43447,346.2003 -46.16749,519.38454 53.5925,27.90798 107.40423,55.41288 161.41544,82.50141 1.23775,-1.07476 -2.78744,-3.24971 -1.36082,-3.83003 z m 2.77554,-18.29904 c -6.96042,-219.59729 -9.74347,-439.31198 -17.24673,-658.89251 0.82037,-8.93364 -0.38965,-17.41825 -10.14544,-9.55017 -6.6328,3.07478 -13.193,6.30294 -19.7881,9.45737 -0.98737,129.93997 -4.16821,259.85755 -5.98227,389.78894 -0.48989,55.62675 -2.41523,111.27081 -1.5529,166.89364 -1.16632,9.39075 5.34995,16.86757 8.68028,25.13811 15.6325,32.24676 31.26499,64.49353 46.89746,96.74031 -0.28744,-6.52522 -0.57486,-13.05046 -0.8623,-19.57569 z"
     id="bolsa"
     class="destacado"
     style="display:block;fill:#cccccc;stroke-width:2.68994" /></svg>
