<svg xmlns="http://www.w3.org/2000/svg" xml:space="preserve" style="display: block;" viewBox="0 0 1024 1024">
<?xml-stylesheet type="text/css" href="../styles.css"?>
  <path d="M0 0h1024v1024H0V0Z" class="drawing-background"/>
  <path d="M0 691v333h1024V691H787l7 171-201 47c-167 40-197 44-217 46l-162-83 16-181z" class="drawing-objects"/>
  <path d="m593 909 201-47c-7-186-16-371-24-556 0-11 2-24-13-21l-54-3c-4-37-10-74-26-107-15-32-41-64-78-70-13-3-28 2-38-8a76 76 0 0 0-86 2c-31 22-48 58-60 93-8 23-12 47-16 71-11 0-29-9-23 10l15 676c0 13 21-1 30 0l172-40zm87-575c-13-11-2-36 16-31 19 1 22 29 5 35-7 4-16 2-21-4zm-220 0c-11-9-5-32 11-32 18-4 25 19 16 31-5 9-20 10-27 1zm183-59c-5-49-16-98-42-140-10-15 17 2 22 7a117 117 0 0 1 37 50c12 26 21 55 23 84 1 6-8 2-12 3-9-1-19 1-28-2zm-93-2-62-4c-5-10 4-25 6-37 9-34 24-70 53-92 11-12 27-9 34 6 22 34 33 74 38 114 5 14-3 19-16 15l-53-2zm-127-10c1-24 5-47 12-69 12-34 33-69 68-81 11-3 28-6 36 2-12 11-25 22-34 36-23 33-34 71-41 110-9 9-27 2-39 2zm-49 688-62-105-94 25c29-15 58-27 87-41 4-185 5-370 10-555-16 1-32-1-47 2-4 25-5 50-8 76l-46 519 162 82c1-1-3-3-2-3zm3-18c-7-220-10-440-17-659 1-9 0-18-10-10l-20 10c-1 130-4 259-6 389l-2 167c-1 10 6 17 9 25l47 97-1-19z" class="drawing-highlight"/>
</svg>
