<svg xmlns="http://www.w3.org/2000/svg" xml:space="preserve" id="svg" style="display: block;" version="1.1" viewBox="0 0 1024 1024">
  <style id="style10">
    .destacado {display: block;
fill: #cccccc;}
.formas {display: inline;
fill: #555555;}
.fondo { display: inline;fill: #e9e9e9; }
  </style>
  <path id="fondo" d="M0 0h1024v1024H0V0Z" class="drawing-background"/>
  <path id="ticket" d="m536 491 61 15-9 39-62-15Z" class="drawing-highlight"/>
  <path id="hermano" d="M932 76c22 19 35 49 31 78-1 26-15 50-14 76-3 14-10 27 6 38l44 43c14 11 30 23 25 43v670H787c-5-60-7-120-7-180-25 4-19-22-19-38 0-53-1-107 2-160-25-3-50-8-74-13-17-4 4-37-17-26-16-1-31-8-46-1-21-2-28-23-40-35-7-5-1-12-11-13-24-14 1-31 17-32 17-6 34-16 52-10 21 4 37 19 54 31 19-1 38 4 57 5 23 7 13-28 21-42 8-47 18-94 37-138 8-18 22-34 36-48 1-15-9-41-28-33-19 7-41-2-40-25-6-13-9-29-15-41-25-4-3-32 1-44 0-19-11-39 1-58 0-13-7-27 8-35 20-18 46-29 72-33 29-4 60 3 84 21z" class="drawing-objects"/>
  <path id="mano2" d="m193 612-10 79a1791 1791 0 0 1 64 19c8 2 16 5 24 4 5-3 6-6 8-11l1-3 3-4 22 18c10 10 19 18 31 24l3 2c9 5 18 11 28 11 5-1 9 1 13 3s6 4 11 4l5-2 5-3 10 1 2-7-1-4 4-1 1-8-17-16a432 432 0 0 1-46-42l9 2c10 3 16 4 26 0l1-6-7-5-2-1a559 559 0 0 0-29-13c-14-7-29-7-44-3l-18 2-1-9c-5-4-5-4-51-17l-45-14z" class="drawing-objects"/>
  <path id="mostrador" d="m268 771 257-2h96c15 1 31 6 44 13 12 7 25 11 38 16l17 6c4 5 1 13 2 19-1 6 3 15-3 19l-10 1-1 181H279l-1-210-12-12a68 68 0 0 1 2-31Z" class="drawing-objects"/>
  <path id="bolsa" d="m395 726-75-18 9-206c0-4-1-9 5-8l20-1c1-14 3-28 9-40s16-24 29-26c5-1 11 1 15-3 9-6 22-6 31 1 12 8 18 21 23 34l6 27c4 0 11-3 8 3l-5 252c0 5-8-1-11 0l-64-15zm-33-214c5-4 1-13-6-12s-8 11-1 14c2 1 5 0 7-2zm82 0c4-3 2-12-4-12-7-1-10 7-6 12 2 3 8 3 10 0zm-68-22c2-18 6-36 16-52 3-5-7 1-8 3-7 4-11 11-14 18-5 10-8 21-9 31 0 3 3 1 5 2l10-1zm35-1 23-1c1-4-2-9-2-14-4-12-9-26-20-34-4-4-10-4-13 2-8 13-12 28-14 43-2 5 1 6 6 5l20-1zm47-3c0-9-2-18-5-26-4-13-12-26-25-30-4-1-10-2-13 1 4 4 9 8 12 13 9 12 13 27 16 41 3 3 9 1 14 1zm18 255 23-39 35 10-32-16-4-206 18 1 2 28 17 193-60 31 1-2zm-1-6c2-82 3-164 6-245 0-4 0-7 4-4l7 4 3 144v63c1 3-2 6-3 9l-18 36 1-7z" class="drawing-highlight"/>
  <path id="hermana" d="M194 86c-34-2-67 18-82 48-17 30-20 67-39 97-17 30-42 55-51 89-7 24-12 53 3 75 10 13-3 30 0 45-1 36 7 71 6 107 1 19-1 37-6 55-5 21-15 41-19 62-14 119-6 240-6 360h227c1-75-5-150-9-225l-4-65c14-3 2-24 5-35-1-21-5-41-1-62 3-27 8-54 9-82 13 4 28 3 38-7l91-73c10-9-11-23 0-29 10-14 23-14 37-10 11-4 9-26 23-14 7 1-2 14 4 13 13 0 1-21 13-20 4 3 13 19 16 5 0-14-5-30-17-39-20-10-45-9-64 3-14 7-26 19-40 26-11-3-18 9-27 14l-54 37c-12-1-17-21-20-32-12-36-25-72-41-107 1-8 12-20 20-24 11 5 24 14 37 8 9-7 11-19 18-28 4-10 6-9 12-9 4 0 8-4 8-9v-46c3-12 20-18 20-33 4-24-12-45-29-60-20-22-49-35-78-35Z" class="drawing-objects"/>
</svg>
