<svg xmlns="http://www.w3.org/2000/svg" xml:space="preserve" version="1.1" viewBox="0 0 1024 1024">

  <path id="fondo" d="M0 0h1024v1024H0V0Z" class="drawing-background"/>
  <path id="bolsa" d="m582 731 75-18-9-206c0-4 0-9-5-8l-20-1c-2-14-4-28-10-40-5-12-15-24-29-26-4-1-10 1-14-3-10-6-23-6-32 1-11 8-18 21-22 34l-6 27c-4 0-11-3-9 3l6 252c0 5 8-1 11 0l64-15zm32-214c-4-4 0-13 6-11 7 0 8 10 2 13-3 1-6 0-8-2zm-81 0c-5-3-2-12 4-12 6-1 9 7 6 12-2 3-8 3-10 0zm67-22c-1-18-5-36-15-52-4-5 6 1 8 3 6 4 11 11 14 18 5 10 8 21 8 32 1 2-3 0-4 1l-10-1zm-34-1-23-1c-2-4 1-9 2-14 4-12 9-26 20-34 4-4 10-3 12 2 9 13 13 28 15 43 2 5-2 7-6 5l-20-1zm-47-3c0-9 2-18 4-26 5-12 12-26 26-30 4-1 10-2 13 1l-13 13c-8 12-12 27-15 41-3 3-10 1-15 1zm-18 256-24-39-34 9c10-6 21-10 32-15l4-207-18 1-3 28-17 193 60 31v-1zm1-7-7-245c1-4 0-7-3-4l-8 4-2 145-1 62c0 3 2 6 4 9l17 36v-7z" class="drawing-highlight"/>
  <path id="hermano" d="m787 525 5-94c-19-1-84-11-103-11-17-11-33-26-54-30-18-6-34 4-51 9-16 2-41 19-17 32 9 2 3 9 11 14 12 12 19 33 39 35 16-7 31-1 47 0 21-10 0 23 17 27 24 5 81 15 106 18z" class="drawing-objects"/>
  <path id="hermano2" d="m859 54-11 1c-26 4-52 15-72 33-15 8-8 22-8 35-12 19-1 39-1 58-4 12-26 40-1 44 6 12 9 28 15 41-1 23 21 32 40 25 19-8 29 18 28 33-14 14-28 30-36 48a599 599 0 0 0-44 181l-6 93c-3 53-2 107-2 160 0 16-6 42 19 38 0 60 2 120 7 180h237V354c5-20-11-32-24-43-16-14-31-28-45-43-16-11-9-24-6-38-1-26 13-50 14-76 4-29-9-59-31-78-21-16-47-23-73-22z" class="drawing-objects"/>
  <path id="ticket" d="m474 332-62 15 10 39 61-15z" class="drawing-highlight"/>
  <path id="mano2" d="m204 614-10 79c8 3 36 9 45 11a4683 4683 0 0 0 39 12c8 2 15 5 24 4 5-3 6-6 8-11v-3l4-3 22 17c9 10 19 18 31 24l3 2c8 5 18 11 28 11 5-1 8 1 13 3 4 2 6 4 10 4l6-2 5-3 10 1c2-4 2-4 1-7v-4l3-1 2-8-17-16a432 432 0 0 1-46-42l9 2c9 3 16 4 26 0l1-6-7-5-2-1a559 559 0 0 0-29-13c-15-7-29-7-45-3l-17 2-1-9c-6-4-6-4-51-17l-65-18z" class="drawing-objects"/>
  <path id="mostrador" d="m268 771 257-2h96c15 1 31 6 44 13 12 7 25 11 38 16l17 6c4 5 1 13 2 19-1 6 3 15-3 19l-10 1-1 181H279l-1-210-12-12a68 68 0 0 1 2-31Z" class="drawing-objects"/>
  <path id="hermana" d="M194 86c-34-2-67 18-82 48-17 30-20 67-39 97-17 30-42 55-51 89-7 24-12 53 3 75 10 13-3 30 0 45-1 36 7 71 6 107 1 19-1 37-6 55-5 21-15 41-19 62-14 119-6 240-6 360h227c1-75-5-150-9-225l-4-65c14-3 2-24 5-35-1-21-5-41-1-62 3-27 8-54 9-82 13 4 28 3 38-7l91-73c10-9-11-23 0-29 10-14 23-16 39-14 15-6 17-8 26-8l12-9c5-1 10-9 13-22-3-23-17-18-29-27-20-10-30 6-49 18-14 7-26 19-40 26-11-3-18 9-27 14l-54 37c-12-1-17-21-20-32-12-36-25-72-41-107 1-8 12-20 20-24 11 5 24 14 37 8 9-7 11-19 18-28 4-10 6-9 12-9 4 0 8-4 8-9v-46c3-12 20-18 20-33 4-24-12-45-29-60-20-22-49-35-78-35Z" class="drawing-objects"/>
</svg>
