<svg xmlns="http://www.w3.org/2000/svg" id="svg" style="display: block;" version="1.1" viewBox="0 0 1024 1024">
        <path id="fondo" d="M0 0h1024v1024H0V0Z" class="drawing-background" />
        <path id="ticket" d="M680 80 235 190l70 286 446-110Z" class="drawing-highlight" />
        <path id="mano"
          d="M518 316c-45 0-81 38-92 80-26 73-31 154-77 219-35 60-89 109-106 178-10 38-22 76-27 115-21 11-55-2-63 33-14 25-46 63-46 83 127 0 254 2 382 1 31-2 51-33 77-49 67-51 136-99 202-151 36-30 30-79 19-120-12-68-18-137-31-205-10-41-53-57-81-82-25-31-61-28-93-14-20-20-4-78-49-85l-8-2zm34 165c16 10 58 36 16 29-34 6-23-4-16-29Zm3 129c14 1 10 32-6 14-11-6-45-16-15-14h21z"
          class="drawing-objects" /></svg>
