<svg xmlns="http://www.w3.org/2000/svg" xml:space="preserve" id="svg" style="display: block;" version="1.1" viewBox="0 0 1024 1024">
  <style id="style10">
    .destacado {display: block;
fill: #cccccc;}
.formas {display: inline;
fill: #555555;}
.fondo { display: inline;fill: #e9e9e9; }
  </style>
  <path id="fondo" d="M0 0h1024v1024H0Z" class="drawing-background" style="display:inline"/>
  <path id="ticket" d="m569 369 61 15-9 39-62-15z" class="drawing-highlight"/>
  <path id="hermano-1" d="m796 571 25-91c-18-5-79-29-98-33-14-15-26-33-46-41-16-10-34-4-52-2-16-2-44 9-23 27 8 4 1 10 7 16 10 14 12 36 31 43 17-4 30 6 46 10 22-5-5 22 11 30l99 41z" class="drawing-objects"/>
  <path id="hermano2" d="m859 54-11 1c-26 4-52 15-72 33-15 8-8 22-8 35-12 19-1 39-1 58-4 12-26 40-1 44 6 12 9 28 15 41-1 23 21 32 40 25 19-8 29 18 28 33-14 14-28 30-36 48a599 599 0 0 0-44 181l-6 93c-3 53-2 107-2 160 0 16-6 42 19 38 0 60 2 120 7 180h237V354c5-20-11-32-24-43-16-14-31-28-45-43-16-11-9-24-6-38-1-26 13-50 14-76 4-29-9-59-31-78-21-16-47-23-73-22Z" class="drawing-objects"/>
  <path id="mano2" d="m193 612-10 79a1791 1791 0 0 1 64 19c8 2 16 5 24 4 5-3 6-6 8-11l1-3 3-4 22 18c10 10 19 18 31 24l3 2c9 5 18 11 28 11 5-1 9 1 13 3s6 4 11 4l5-2 5-3 10 1 2-7-1-4 4-1 1-8-17-16a432 432 0 0 1-46-42l9 2c10 3 16 4 26 0l1-6-7-5-2-1a559 559 0 0 0-29-13c-14-7-29-7-44-3l-18 2-1-9c-5-4-5-4-51-17l-45-14z" class="drawing-objects"/>
  <path id="mostrador" d="m268 771 257-2h96c15 1 31 6 44 13 12 7 25 11 38 16l17 6c4 5 1 13 2 19-1 6 3 15-3 19l-10 1-1 181H279l-1-210-12-12a68 68 0 0 1 2-31Z" class="drawing-objects"/>
  <path id="bolsa" d="m397 708-75-18 9-206c0-4-1-9 5-8l20-1c1-14 3-28 9-40s16-24 29-26c5-1 11 1 15-3 9-6 22-6 31 1 12 8 18 21 23 34l6 27c4 0 11-3 8 3l-5 252c0 5-8-1-11 0zm-33-214c5-4 1-13-6-12s-8 11-1 14c2 1 5 0 7-2zm82 0c4-3 2-12-4-12-7-1-10 7-6 12 2 3 8 3 10 0zm-68-22c2-18 6-36 16-52 3-5-7 1-8 3-7 4-11 11-14 18-5 10-8 21-9 31 0 3 3 1 5 2l10-1zm35-1 23-1c1-4-2-9-2-14-4-12-9-26-20-34-4-4-10-4-13 2-8 13-12 28-14 43-2 5 1 6 6 5zm47-3c0-9-2-18-5-26-4-13-12-26-25-30-4-1-10-2-13 1 4 4 9 8 12 13 9 12 13 27 16 41 3 3 9 1 14 1zm18 255 23-39 35 10-32-16-4-206 18 1 2 28 17 193-60 31zm-1-6c2-82 3-164 6-245 0-4 0-7 4-4l7 4 3 144v63c1 3-2 6-3 9l-18 36z" class="drawing-highlight"/>
  <path id="hermana" d="M167 63c-8 1-15 1-22 3-33 6-61 34-68 66-10 33-4 70-15 104l-9 26c-13 18-25 36-31 58-7 24-12 53 3 75 10 13-3 30 0 45-1 36 7 71 6 107 1 19-1 37-6 55-5 21-15 41-19 62-14 119-6 240-6 360h227c1-75-5-150-9-225l-4-65c14-3 2-24 5-35-1-21-5-41-1-62 3-27 8-54 9-82 13 4 28 3 38-7l91-73c10-9-11-23 0-29 10-14 23-16 39-14 15-6 17-8 26-8l12-9c5-1 10-9 13-22-3-23-17-18-29-27-20-10-30 6-49 18-14 7-26 19-40 26-11-3-18 9-27 14l-54 37c-12-1-17-21-20-32-12-36-38-69-54-104-1-8 14-47 20-53 12 2 41 5 52-4 7-9 6-21 11-31 1-11 3-10 9-12 4-1 7-5 6-10l-11-45c0-12 15-22 11-37-1-24-22-41-42-51-18-13-41-19-62-19Z" class="drawing-objects"/>
</svg>
