<?xml version="1.0" encoding="UTF-8" standalone="no"?>
<!-- Generator: visioncortex VTracer -->

<svg
   id="svg"
   version="1.1"
   style="display: block;"
   viewBox="0 0 1024 1024"
   sodipodi:docname="paso2.svg"
   xml:space="preserve"
   inkscape:version="1.4.2 (f4327f4, 2025-05-13)"
   xmlns:inkscape="http://www.inkscape.org/namespaces/inkscape"
   xmlns:sodipodi="http://sodipodi.sourceforge.net/DTD/sodipodi-0.dtd"
   xmlns="http://www.w3.org/2000/svg"
   xmlns:svg="http://www.w3.org/2000/svg"><sodipodi:namedview
     id="namedview9"
     pagecolor="#505050"
     bordercolor="#eeeeee"
     borderopacity="1"
     inkscape:showpageshadow="0"
     inkscape:pageopacity="0"
     inkscape:pagecheckerboard="0"
     inkscape:deskcolor="#505050"
     inkscape:zoom="0.78808594"
     inkscape:cx="441.57621"
     inkscape:cy="481.54647"
     inkscape:window-width="1920"
     inkscape:window-height="1009"
     inkscape:window-x="1272"
     inkscape:window-y="375"
     inkscape:window-maximized="1"
     inkscape:current-layer="svg" /><style
     id="style10">.destacado {display: block;
fill: #cccccc;}
.formas {display: inline;
fill: #555555;}
.fondo { display: inline;fill: #e9e9e9; }
</style><defs
     id="defs9"><inkscape:path-effect
       effect="fillet_chamfer"
       id="path-effect10"
       is_visible="true"
       lpeversion="1"
       nodesatellites_param="F,0,0,1,0,0,0,1 @ F,0,0,1,0,0,0,1 @ F,0,0,1,0,0,0,1 @ F,0,0,1,0,0,0,1 @ F,0,0,1,0,0,0,1 @ F,0,0,1,0,0,0,1 @ F,0,0,1,0,0,0,1 @ F,0,0,1,0,0,0,1 @ F,0,0,1,0,0,0,1 @ F,0,0,1,0,0,0,1 @ F,0,0,1,0,0,0,1 @ F,0,0,1,0,0,0,1 @ F,0,0,1,0,0,0,1 @ F,0,0,1,0,0,0,1 @ F,0,0,1,0,0,0,1 @ F,0,0,1,0,0,0,1 @ F,0,0,1,0,0,0,1 @ F,0,0,1,0,0,0,1 @ F,0,0,1,0,0,0,1 @ F,0,0,1,0,0,0,1 @ F,0,0,1,0,0,0,1 @ F,0,0,1,0,0,0,1 @ F,0,0,1,0,0,0,1 @ F,0,0,1,0,0,0,1 @ F,0,0,1,0,0,0,1 @ F,0,0,1,0,0,0,1 @ F,0,0,1,0,0,0,1 @ F,0,0,1,0,0,0,1 @ F,0,0,1,0,0,0,1 @ F,0,0,1,0,0,0,1 @ F,0,0,1,0,0,0,1 @ F,0,0,1,0,0,0,1 @ F,0,0,1,0,0,0,1 @ F,0,0,1,0,0,0,1 @ F,0,0,1,0,7.9153143,0,1 @ F,0,0,1,0,0,0,1 @ F,0,0,1,0,0,0,1 @ F,0,0,1,0,0,0,1"
       radius="0"
       unit="px"
       method="auto"
       mode="F"
       chamfer_steps="1"
       flexible="false"
       use_knot_distance="true"
       apply_no_radius="true"
       apply_with_radius="true"
       only_selected="false"
       hide_knots="false" /></defs><path
     d="m 0,0 c 337.92,0 675.84,0 1024,0 0,337.92 0,675.84 0,1024 -337.92,0 -675.84,0 -1024,0 C 0,686.08 0,348.16 0,0 Z"
     id="fondo"
     class="fondo" /><path
     d="m 581.87822,731.08192 c 24.93071,-5.84591 49.88848,-11.58296 74.77573,-17.61011 -2.64137,-68.9429 -5.77975,-137.86865 -8.9311,-206.79071 -0.124,-3.91065 0.69022,-8.91996 -4.8655,-7.54669 -6.60261,-0.4827 -13.23288,-0.65658 -19.81498,-1.37921 -1.62355,-13.52309 -3.73862,-27.2586 -9.7199,-39.65362 -5.57336,-11.96425 -15.31201,-23.74939 -28.98339,-26.1011 -4.80114,-1.15729 -10.465,0.94701 -14.4349,-2.80437 -9.4484,-6.39029 -22.47769,-5.95384 -31.71964,0.60439 -11.50466,8.2178 -17.92043,21.59065 -22.50342,34.58347 -3.03145,8.50388 -4.27704,17.46424 -5.69672,26.3297 -4.10753,-0.0238 -10.94141,-3.05016 -8.85493,3.77258 1.61634,83.76272 3.4848,167.52205 5.73335,251.2702 -0.0918,4.99525 7.7921,-0.39945 11.12802,-0.02 21.32251,-4.76719 42.60682,-9.704 63.88738,-14.65448 z m 32.58875,-213.82923 c -4.79583,-4.21996 -0.67725,-13.42213 5.8463,-11.71989 6.90535,0.63349 7.96064,10.88535 1.63128,13.33787 -2.51516,1.5376 -5.6816,0.54688 -7.47758,-1.61798 z m -81.934,0.10834 c -4.24767,-3.52011 -1.85473,-11.99051 4.004,-11.89843 6.65631,-1.51058 9.56205,6.90914 6.17863,11.49674 -2.15357,3.40081 -7.72522,3.47062 -10.18263,0.40169 z m 67.88951,-22.05366 c -1.62732,-18.17007 -5.83903,-36.59769 -15.61597,-52.21441 -3.46494,-5.38021 6.33357,1.03092 8.21236,2.5832 6.26033,4.78626 10.94098,11.29671 13.85275,18.59402 4.65149,9.79261 7.83603,20.41882 8.60093,31.24859 0.37989,2.33863 -3.17045,0.74703 -4.66378,1.21244 -3.34708,-0.18595 -6.92853,0.53962 -10.07864,-0.61874 z m -34.39941,-0.89751 c -7.68275,-0.47757 -15.42836,-0.43553 -23.05498,-1.52467 -1.70498,-3.62733 1.43421,-9.17195 2.02184,-13.45073 3.65963,-12.69319 9.0052,-26.00601 19.88341,-34.19932 4.19999,-4.45201 10.16309,-3.57948 12.52621,2.1681 8.20986,12.58421 12.50068,27.45049 14.34357,42.26333 1.89899,5.14226 -1.40073,6.96817 -6.13202,5.61085 -6.52993,-0.27573 -13.05909,-0.5695 -19.58803,-0.86756 z m -47.21604,-3.71703 c 0.22518,-8.66105 2.0024,-17.34904 4.61357,-25.61725 4.28408,-12.49779 12.05751,-25.66349 25.26335,-30.09369 4.12354,-1.05278 10.11439,-2.06418 13.26913,0.80237 -4.59263,4.09647 -9.3893,8.24969 -12.73408,13.56705 -8.34059,12.12337 -12.60831,26.41945 -15.23487,40.75332 -3.19046,3.33387 -9.89597,0.55853 -14.48779,0.74737 z M 500.7312,746.53562 c -7.82321,-12.95793 -15.5828,-25.95417 -23.37012,-38.93369 -11.60545,3.05323 -23.15298,6.35886 -34.82241,9.14982 10.65518,-5.26569 21.53208,-10.0781 32.30585,-15.09904 1.70986,-68.72057 2.10535,-137.4682 3.87295,-206.18714 -5.88442,0.18845 -11.87782,-0.47515 -17.67122,0.52501 -1.21473,9.28075 -1.69644,18.83292 -2.65335,28.21377 -5.68152,64.36493 -11.68597,128.70227 -17.16307,193.08467 19.92337,10.37498 39.92824,20.60011 60.00727,30.67044 0.46014,-0.39955 -1.03625,-1.20809 -0.5059,-1.42384 z m 1.03183,-6.80278 c -2.58758,-81.63676 -3.6222,-163.31716 -6.41159,-244.94769 0.30498,-3.32114 -0.14485,-6.47535 -3.77163,-3.55034 -2.46579,1.14307 -4.90459,2.34316 -7.35636,3.51584 -0.36706,48.30605 -1.54956,96.60378 -2.22395,144.90664 -0.18212,20.67962 -0.89788,41.36567 -0.5773,62.04383 -0.43359,3.49107 1.98888,6.27063 3.22695,9.34526 5.81149,11.98795 11.62297,23.9759 17.43445,35.96386 -0.10686,-2.4258 -0.21371,-4.8516 -0.32057,-7.2774 z"
     id="bolsa"
     class="destacado"
     style="display:block" /><path
     id="hermano"
     class="formas"
     d="m 786.58754,524.5143 5.82031,-93.41992 c -19.27006,-0.69687 -83.90835,-11.47699 -103.00848,-10.9622 -17.14568,-11.1965 -33.15014,-26.2704 -54.06054,-30.29492 -17.89412,-6.33686 -34.56955,4.18891 -51.16797,9.2793 -16.65486,1.95098 -41.65284,18.52235 -17.56446,32.17383 9.8569,1.51332 3.77108,8.67262 11.39063,13.58594 12.08426,11.95384 19.18292,32.72083 39.42187,34.70312 15.61258,-7.0252 30.23324,-0.14389 46.8086,0.77734 20.36168,-10.43895 -0.23325,22.7208 16.41601,26.375 24.45644,5.24726 81.02795,15.03345 105.94403,17.78251 z" /><path
     id="hermano2"
     class="formas"
     d="M 859.16016 53.847656 C 855.48646 53.955812 851.82712 54.226782 848.20117 54.658203 C 822.11394 59.400451 796.46279 70.362822 776.11133 87.509766 C 760.92348 96.38643 767.59811 110.4882 767.56641 123.28125 C 755.84077 142.2366 766.65694 162.0696 766.71094 180.55664 C 762.78027 193.47247 740.74826 221.48893 765.79492 224.86719 C 772.32967 236.67081 774.9711 252.8819 781.43164 266.24219 C 780.05285 289.03571 801.82323 298.0842 820.75 290.9375 C 840.09685 282.98447 850.17515 308.90361 848.54297 324.03125 C 834.63918 338.26951 821.31235 353.53592 812.80273 371.71289 C 793.64541 415.71562 783.90077 463.1152 775.69727 510.20703 C 771.87921 525.7562 771.28258 532.19955 768.82031 552.58008 L 763 646 C 760.38809 699.32594 760.90417 752.72852 760.77148 806.09961 C 760.95906 821.79266 755.03267 848.46879 780 844 C 780.32398 904.05283 782.37576 964.11888 787 1024 L 1024 1024 C 1024.0568 800.80938 1024.074 577.61835 1024.127 354.42773 C 1029.4563 334.37013 1013.1759 321.91215 999.5 310.67188 C 983.75933 297.27527 968.94799 283.0061 954.75977 268 C 938.88575 257.43568 946.34822 244.31768 948.76758 230.15234 C 947.89827 203.98567 961.71337 180.39614 962.70508 154.38086 C 967.21342 124.99685 954.33684 94.95587 931.66016 76.128906 C 911.28141 60.299517 884.87601 53.090563 859.16016 53.847656 z " /><path
     id="ticket"
     class="destacado"
     d="m 473.59091,331.57051 -61.267,15.06 9.648,39.252 61.268,-15.059 z"
     style="display:block" /><path
     id="mano2"
     d="m 203.84964,614.11923 -10,79 c 8.44,2.39 36.60041,8.42498 45.00541,10.93898 4.208,1.259 8.419,2.508 12.63,3.755 3.725,1.103 7.45,2.206 11.17,3.321 3.697,1.11 7.394,2.216 11.096,3.308 1.411,0.416 2.822,0.833 4.233,1.25 7.94,2.406 15.241,4.819 23.605,4.016 5.09,-2.785 6.275,-5.294 8.062,-10.75 l 0.786,-2.922 3.273,-3.531 22.191,17.578 c 9.375,9.718 18.95,17.815 30.868,24.342 1.392,0.742 1.393,0.743 2.758,1.471 8.835,4.732 18.099,11.314 28.437,10.687 5.05,-0.307 8.53,1.243 12.875,3.625 3.661,2.126 6.208,3.431 10.422,3.969 l 5.351,-2.465 5.141,-2.289 c 3.311,0.213 6.521,0.459 9.836,0.285 2.166,-3.249 2.213,-3.599 1.625,-7.188 l -0.625,-3.812 3.625,-1.125 1.375,-7.875 -16.688,-15.25 c -6.226,-4.834 -12.243,-9.873 -18.195,-15.039 -1.038,-0.904 -2.077,-1.808 -3.117,-2.711 -9.023,-7.677 -17.357,-15.939 -25,-25 3.098,0.437 5.956,0.985 8.93,1.973 9.849,3.644 16.229,3.854 26.07,0.027 l 1,-6 c -2.101,-2.101 -4.212,-3.236 -6.848,-4.563 -1.023,-0.504 -1.024,-0.505 -2.027,-1 -8.042,-3.982 -16.162,-7.791 -24.387,-11.382 -1.58,-0.683 -3.16,-1.368 -4.738,-2.055 -14.305,-6.596 -29.027,-6.903 -44.188,-3 -6.134,1.661 -11.443,2.404 -17.812,2 0.06,-3.258 0.478,-6.043 -1,-9 -5.481,-3.238 -5.482,-3.238 -50.686,-16.697 -15.193,-4.519 -50.05841,-12.74498 -65.05341,-17.89198 z"
     class="formas" /><path
     d="m 268,771 c 85.54317,-0.79697 171.0903,-1.01079 256.63417,-1.68174 32.05225,0.26926 64.12416,-1.41429 96.15984,-0.006 15.62655,0.41245 30.71572,5.3312 44.3853,12.7216 11.90082,6.63032 24.68508,11.30677 37.45676,15.93624 5.67117,2.41563 11.78018,3.81552 17.31987,6.46622 3.94701,5.01694 1.42372,12.55828 2.22936,18.64791 -1.25957,5.97919 2.93202,15.3014 -3.0198,18.99114 -3.3885,0.30805 -6.777,0.61609 -10.1655,0.92414 -0.33333,60.33333 -0.66667,120.66667 -1,181 -143,0 -286,0 -429,0 -0.33333,-70 -0.66667,-140 -1,-210 -4,-4 -8,-8 -12,-12 -1.68143,-8.98194 -1.11893,-18.39846 0.86442,-27.29442 C 267.19671,773.45682 267.57891,772.22159 268,771 Z"
     id="mostrador"
     class="formas" /><path
     id="hermana"
     d="m 193.76953,85.855469 c -33.78944,-1.516868 -66.80617,18.006941 -82.17335,48.044451 -17.02205,30.55998 -19.77646,66.98671 -38.7657,96.66028 -16.80893,29.94583 -41.42907,55.76824 -50.91539,89.50273 -7.06326,23.92898 -11.62408,52.63446 2.83298,74.82481 10.02688,12.94157 -2.2708,29.82203 0.0326,44.76291 -1.2001,36.1076 7.17231,71.69629 6.45293,107.81964 0.90436,18.49789 -1.01108,36.93344 -6.56748,54.65256 C 19.59774,622.97572 10.28864,642.76318 6.20221,663.77562 -8.48111,783.33574 -0.42685,903.94979 0,1024 H 227 C 227.72463,949.04354 222.34471,874.20529 218.32571,799.39925 216.98621,777.59288 215.5423,755.79296 214,734 c 13.68015,-3.27388 2.4864,-24.40628 4.88313,-34.87421 -0.56861,-20.65806 -4.80204,-41.47261 -1.00004,-62.00222 C 220.89899,609.74695 225.91516,582.55226 227,555 c 12.77931,4.13167 27.87738,3.33635 37.90808,-6.55812 30.4117,-24.39561 60.33911,-49.43901 90.65296,-73.93382 10.00523,-8.84537 -10.58534,-22.16001 0.87147,-28.73532 9.2991,-13.50141 22.75871,-15.39005 38.77943,-13.66146 14.30013,-5.6208 16.34551,-7.80903 25.47308,-7.89691 12.33188,-8.83075 0,0 12.7805,-8.83075 4.60697,-1.08332 9.64934,-9.00056 12.69036,-22.85795 -2.91962,-22.14773 -16.96889,-17.35805 -29.00797,-26.26916 -19.73385,-10.29329 -30.05117,6.03165 -48.68689,18.08507 -14.72251,6.28303 -26.90024,18.92494 -40.48444,25.40061 -10.874,-2.41709 -18.45928,9.32743 -27.20901,14.11152 -17.78094,12.19608 -35.15932,25.07978 -53.27668,36.72657 -12.2385,-0.86435 -17.54193,-20.23771 -20.94917,-31.94532 -11.71614,-36.05149 -24.22827,-71.91906 -40.41539,-106.23379 1.0935,-8.17422 11.99939,-20.42923 20.05029,-24.3633 11.05317,5.25717 24.0664,13.69741 36.50092,8.34385 8.88478,-6.93072 11.42222,-19.57246 18.60634,-28.18469 3.69621,-10.35023 5.39168,-9.50425 11.84624,-9.49731 4.36559,0.005 7.91565,-4.18902 7.89099,-8.5604 -0.0808,-14.32602 -0.55402,-33.71045 0.31152,-45.8032 2.28032,-12.64411 19.66613,-17.98379 19.4691,-32.93401 4.62813,-23.98161 -11.49045,-45.29223 -28.37392,-60.42652 C 252.26019,99.443526 223.26786,86.478635 193.76953,85.855469 Z"
     class="formas" /></svg>
