<svg xmlns="http://www.w3.org/2000/svg" xml:space="preserve" style="shape-rendering:geometricPrecision;text-rendering:geometricPrecision;image-rendering:optimizeQuality;fill-rule:evenodd;clip-rule:evenodd" viewBox="0 0 17617.8 3942"><path d="M13337.5 2167a194 194 0 0 1 138.2 53c2.9 2.7 3.6 7.2.7 10l-9.2 9.7c-3.3 3.5-6.2 3-9.7-.4a177.2 177.2 0 0 0-120-46.8 178.2 178.2 0 0 0-177.4 179.8c0 97.9 78 178.5 177.4 178.5 49 0 85.9-19.3 120-47.8 3.5-2.7 7-2.7 9.2-1l9.6 9.6c3 2.3 3 6.8 0 9.7a197 197 0 0 1-138.7 55.2 204 204 0 0 1-205.8-204.2c0-113.7 92-205.3 205.8-205.3zm231.2 13c0-4 3.4-7.3 7.3-7.3h228.1c4 0 7.4 3.3 7.4 7.4v9.6c0 4-3.5 7.4-7.4 7.4H13596v157h180.3c4 0 7.4 3.4 7.4 7.4v9.6c0 4-3.5 7.4-7.4 7.4H13596v168.3h208.2c4 0 7.4 3.4 7.4 7.5v9c0 4-3.5 7.4-7.4 7.4H13576c-4 0-7.3-3.3-7.3-7.4v-383.2zm340.3-5.7c0-4.5 3.9-7.3 8.4-7.3h9.7l273 355.5h.5V2180c0-4 3.5-7.4 7.4-7.4h11.4c4 0 7.3 3.5 7.3 7.4v389c0 5.1-4.5 7.5-9 7.5h-7.5c-.5 0-5-1.8-275.1-358.9h-.6v345.8c0 4-3.5 7.3-7.4 7.3h-10.9a7.5 7.5 0 0 1-7.3-7.3v-389zm498.8 22.8h-108.5c-5.8 0-7.5-3.4-7.5-8.5v-8.5c0-4.6 3.5-7.4 7.5-7.4h244.5c4.6 0 7.4 3.4 7.4 7.4v9.6c0 4-2.8 7.4-7.4 7.4h-109.2v366.3c0 4-3.4 7.3-9.2 7.3h-10.2c-4 0-7.4-3.4-7.4-7.3V2197zm208.4-17.1c0-4 2.7-7.3 7.2-7.3h141.2c69.4 0 126.8 52.2 126.8 121.7 0 57.3-39.8 103.5-94 118.9l83.2 147.2c2.9 4.6 1.6 10.2-4 10.2h-17.6c-4 0-6.3-1.7-8-5l-82.5-149c-7.4.5-13.6.5-21 .5h-104.7v146.1c0 4-3.4 7.4-9 7.4h-10.3c-4 0-7.3-3.3-7.3-7.4v-383.2zm147.1 213.3a99.4 99.4 0 0 0 100.8-99c0-54-46.1-95.5-101.3-95.5h-119.4v194.4h119.9zm398.9-226.3a204.5 204.5 0 0 1 205.2 205.3 203.1 203.1 0 0 1-205.2 204.2 203.2 203.2 0 0 1-204.9-204.2 204.5 204.5 0 0 1 205-205.3zm0 384.4c99.5 0 180.3-79.6 180.3-179a180 180 0 1 0-360 0c0 99.4 80.2 179 179.7 179zM13160 2862.8c0-4 3.6-7.4 7.5-7.4h122.2c70.5 0 128.6 57.5 128.6 127.5 0 71-58 129-128 129h-103.5V3246c0 4.1-3.4 7.4-9.1 7.4h-10.2c-4 0-7.4-3.3-7.4-7.4v-383.2zm128.6 223c55.9 0 103-46.1 103-103.6 0-55.7-47.1-100-103.6-100h-101.2v203.5h101.8zm209.5-223c0-4 2.8-7.4 7.4-7.4h141c69.4 0 126.8 52.4 126.8 121.7 0 57.5-39.8 103.5-93.8 119l83 147.2c3 4.5 1.8 10.1-3.9 10.1h-17.6c-4.1 0-6.3-1.6-8-5l-82.5-149c-7.4.5-13.7.5-21 .5h-104.7V3246c0 4.1-3.3 7.4-9.1 7.4h-10.2c-4 0-7.4-3.3-7.4-7.4v-383.2zm147.2 213.3a99.5 99.5 0 0 0 100.8-99c0-54-46.1-95.4-101.2-95.4h-119.5V3076h120zm398.9-226.3a204.4 204.4 0 0 1 205.2 205.1 203.1 203.1 0 0 1-205.2 204.3 203.1 203.1 0 0 1-204.8-204.3c0-113.6 91-205.2 204.8-205.2zm0 384.4c99.5 0 180.3-79.6 180.3-179.2 0-99.5-80.8-180.3-180.3-180.3a179.9 179.9 0 0 0-179.8 180.3 179 179 0 0 0 179.8 179.2zm238.6-371.4c-2.5-4.5-.7-7.4 4.5-7.4h15.4c3.3 0 5.6 2.3 6.2 4l153.5 353h1l155.4-353c.6-1.7 3-4 6.3-4h14.7c5.2 0 7.4 3.5 5.2 8l-174.6 390.6c-1.2 3-3.5 5.3-7 5.3h-2.7c-3.4 0-5.7-3.5-6.3-5.3l-171.6-391.2zm427.2 0c0-4 3.4-7.4 7.3-7.4h12.6c4 0 7.3 3.5 7.3 7.4V3246c0 4.7-4 7.4-7.9 7.4h-12a7.4 7.4 0 0 1-7.3-7.4v-383.2zm147.9-5.7c0-4.5 4-7.3 8.5-7.3h9.8l273 355.4h.4v-342.4c0-4 3.5-7.4 7.4-7.4h11.5c4 0 7.3 3.4 7.3 7.4v389c0 5.2-4.5 7.4-9 7.4h-7.6c-.4 0-5-1.7-275-358.8h-.6V3246c0 4-3.6 7.5-7.4 7.5h-10.9c-4 0-7.4-3.5-7.4-7.5v-389zm616.1-7.3c58 0 101.2 19.3 138.2 52.8 2.9 2.8 3.5 7.4.7 10.2l-9.2 9.7c-3.3 3.5-6.2 2.9-9.7-.5a177.4 177.4 0 0 0-120-46.7 178.2 178.2 0 0 0-177.4 179.6c0 98 78 178.6 177.5 178.6 48.9 0 85.8-19.3 120-47.7 3.4-2.8 6.8-2.8 9-1l9.8 9.5c2.9 2.4 2.9 6.9 0 9.8a197.1 197.1 0 0 1-138.8 55.1 204 204 0 0 1-205.8-204.3c0-113.6 92-205.2 205.8-205.2zm231.2 13c0-4 3.3-7.4 7.3-7.4h12.6c4 0 7.2 3.5 7.2 7.4V3246c0 4.7-3.9 7.4-7.8 7.4h-12c-4 0-7.4-3.3-7.4-7.4v-383.2zm91 383.9 175.1-395.8c1.1-2.3 4-4 6.9-4h1.7c2.8 0 5.7.5 7.3 4l173.5 395.8c1.2 3.4 1.2 6.8-5.2 6.8h-14.7a9 9 0 0 1-8-5.1l-46-104.7h-217.2l-45.6 104.7a9 9 0 0 1-7.9 5h-16c-3.9 0-5.6-2.1-3.9-6.7zm281-125.2-97.3-229.2h-1.1l-99 229.2h197.4zm147.4-258.7c0-4 3.4-7.4 7.3-7.4h12.6c3.4 0 6.7 3.5 6.7 7.4v366.8h181.5c6.8 0 7.4 3.5 7.4 7.4v10.2c0 4-3.3 6.3-7.4 6.3h-200.8c-4 0-7.3-3.4-7.3-7.5v-383.2zm401.6 0c0-4 3.5-7.4 7-7.4h120.5a199.7 199.7 0 0 1 200.1 198.5 199.6 199.6 0 0 1-200.1 199.5h-120.5c-3.5 0-7-3.3-7-7.4v-383.2zm122.9 366.3c99.6 0 176.3-75.7 176.3-175.2 0-98.4-76.7-174-176.3-174h-96.2V3229h96.2zm297-366.3c0-4 3.5-7.4 7.4-7.4h228.1c4 0 7.5 3.5 7.5 7.4v9.6c0 4-3.5 7.4-7.5 7.4h-208.2v157h180.4c4 0 7.3 3.5 7.3 7.4v9.7c0 4-3.4 7.4-7.3 7.4h-180.4v168.3h208.2c4 0 7.5 3.5 7.5 7.4v9c0 4.1-3.5 7.5-7.5 7.5h-228a7.5 7.5 0 0 1-7.5-7.5v-383.2zm-3718.2 669.7c57.4 0 99 18.1 137.6 52.8 5.1 4.7 5.1 11.5.6 16l-34.6 35.7c-4.1 4.7-9.7 4.7-14.4 0a135 135 0 0 0-87.4-33.5c-72.9 0-127 61-127 132.6 0 71.1 54.7 131.4 127.6 131.4 34 0 63-13 86.8-32.5 4.7-4 10.8-3.4 14.4 0l35.2 36.4c4.5 4 3.3 11.4-.6 15.4a195.7 195.7 0 0 1-138.3 55.2 204 204 0 0 1-205.2-204.3 205 205 0 0 1 205.3-205.2zm386.9 0a204.4 204.4 0 0 1 204.7 205.2c0 113.8-91 204.3-204.7 204.3a203 203 0 0 1-204.2-204.3 204 204 0 0 1 204.2-205.2zm0 335.4a131 131 0 0 0 130.8-130.2 132 132 0 0 0-130.8-131.3 131.6 131.6 0 0 0-130.3 131.3c0 71.7 58.6 130.3 130.3 130.3zm279.4-325.2c0-5.7 5.1-10.2 10.8-10.2h14.2l236.6 251.3h.6V3549c0-5.7 4.6-10.8 10.7-10.8h52.4c5.7 0 10.8 5.1 10.8 10.8v382.7c0 5.7-5.1 10.2-10.8 10.2h-13.8l-237.6-261h-.5v244.6a11 11 0 0 1-10.9 10.8h-51.7c-5.7 0-10.8-5.3-10.8-10.8v-382.8zm388.1 10.3c-3.5-7.3 1.1-14.8 9.6-14.8h58c5.2 0 8.5 3.4 9.7 6.2l109.2 244.6h4l109.2-244.6c1.2-2.8 4.5-6.2 9.6-6.2h58.1c8.5 0 13 7.5 9.6 14.7l-176.3 382.8a10.3 10.3 0 0 1-9.7 6.3h-5.6c-5.2 0-8-3-9.7-6.3l-175.7-382.8zm428.9-4c0-5.7 4.6-10.8 11-10.8h231.3c6.2 0 10.9 5 10.9 10.8v46.6a11 11 0 0 1-11 10.9h-168.3v93.2h140.6c5.6 0 10.8 5 10.8 10.8v47.1c0 6.3-5.2 10.8-10.8 10.8h-140.6v99.6h168.4c6.2 0 10.9 5.1 10.9 10.8v46.6a11 11 0 0 1-11 10.9h-231.3a11 11 0 0 1-10.9-10.9V3549zm334.7-6.3c0-5.7 5-10.2 10.7-10.2h14.3l236.5 251.3h.6V3549c0-5.7 4.6-10.8 10.8-10.8h52.4c5.5 0 10.7 5.1 10.7 10.8v382.7c0 5.7-5.2 10.2-10.7 10.2h-13.8l-237.6-261h-.6v244.6c0 5.5-4.5 10.8-10.9 10.8h-51.7c-5.6 0-10.7-5.3-10.7-10.8v-382.8zm616-10.2c57.5 0 98.9 18.1 137.6 52.8 5.1 4.7 5.1 11.5.6 16l-34.6 35.7c-4.1 4.7-9.7 4.7-14.3 0a135.6 135.6 0 0 0-87.6-33.5c-72.8 0-126.8 61-126.8 132.6 0 71.1 54.6 131.4 127.4 131.4 34 0 63-13 87-32.5 4.6-4 10.7-3.4 14.3 0l35.2 36.4c4.5 4 3.3 11.4-.6 15.4a195.7 195.7 0 0 1-138.2 55.2 204 204 0 0 1-205.3-204.3 204.8 204.8 0 0 1 205.3-205.2zm212.9 16.5c0-5.7 5.1-10.8 10.8-10.8h53a11 11 0 0 1 10.7 10.8v376.4c0 5.7-5 10.9-10.7 10.9h-53c-5.7 0-10.8-5.2-10.8-10.9V3549zm353.7-16.5a204.5 204.5 0 0 1 205 205.2 203.6 203.6 0 0 1-205 204.3 203 203 0 0 1-204.1-204.3 204 204 0 0 1 204.1-205.2zm0 335.4a131 131 0 0 0 130.9-130.2 132 132 0 0 0-130.9-131.3 131.5 131.5 0 0 0-130.1 131.3c0 71.7 58.5 130.3 130.1 130.3zm279.5-325.2c0-5.7 5.1-10.2 10.9-10.2h14.1l236.7 251.3h.6V3549c0-5.7 4.5-10.8 10.6-10.8h52.4c5.7 0 10.8 5.1 10.8 10.8v382.7c0 5.7-5 10.2-10.8 10.2h-13.6l-237.8-261h-.5v244.6c0 5.5-4.5 10.8-10.8 10.8h-51.7c-5.8 0-10.9-5.3-10.9-10.8v-382.8zm439.8 6.3c0-5.7 4.5-10.8 10.9-10.8h231.3c6.3 0 11 5 11 10.8v46.6a11 11 0 0 1-11 10.9h-168.3v93.2h140.6c5.5 0 10.8 5 10.8 10.8v47.1c0 6.3-5.3 10.8-10.8 10.8h-140.6v99.6h168.3a11 11 0 0 1 11 10.8v46.6a11 11 0 0 1-11 10.9h-231.3c-6.4 0-10.9-5.2-10.9-10.9V3549zm311.2 331.6 20.5-35.3c4.7-8 14.3-8 19.5-4 2.7 1.6 48.8 35.2 85.8 35.2 29.6 0 51.7-19.3 51.7-43.7 0-29-24.5-49-72.2-68.3-53.5-21.6-107-55.8-107-122.8 0-50.6 37.6-109.2 128-109.2a200 200 0 0 1 113.8 38.1c5.7 3.4 7.4 13 3.3 18.8l-21.6 32.4c-4.5 6.8-13 11.3-19.9 6.8-4.5-3-47.8-31.2-79-31.2-32.4 0-50 21.5-50 39.7 0 26.8 21 45 67.1 63.7 55.2 22.2 118.8 55.1 118.8 128.5 0 58.6-50.5 112.7-130.8 112.7-71.7 0-113.7-33.6-125.2-44.4-5-5.1-7.8-8-2.7-17zM8816 0v3942h1300V2239a59.7 59.7 0 0 1 57.8-57.5h142.6c30.4 0 51.7 27.3 63.8 60.5l36.4 100s139.7-190.7 406.8-190.7c343 0 601 287.5 601 635.6 0 426.7-279.3 635.6-604 635.6-103.2 0-215.6-36.3-252-57.5v577h2189.4V0H8816zm1225 3168.3c-112.4 169.4-270.2 254.2-488.7 254.2-346 0-652.5-272.5-652.5-635.6 0-357.1 309.5-635.6 655.6-635.6 191.2 0 340 78.7 455.2 217.8 21.4 27.4 12.2 60.7-15 84.8l-182.2 172.6c-15.2 15.1-51.7 9-66.8-6-42.5-45.5-106.2-78.8-176.1-78.8-133.5 0-242.8 112-242.8 245.2 0 136.3 103.1 245.1 236.7 245.1 106.2 0 157.9-45.4 206.4-93.8 21.4-21.2 48.7-27.2 66.9-12l182 157.3c27.3 24.2 42.5 54.5 21.3 84.8zm2623.1 0c-112.3 169.4-270.2 254.2-488.7 254.2-346 0-652.5-272.5-652.5-635.6 0-357.1 309.5-635.6 655.5-635.6 191.4 0 340.1 78.7 455.3 217.8 21.2 27.4 12.2 60.7-15.1 84.8l-182.2 172.6c-15.1 15.1-51.5 9-66.6-6-42.6-45.5-106.3-78.8-176.1-78.8-133.5 0-242.8 112-242.8 245.2 0 136.3 103 245.1 236.7 245.1 106.2 0 157.9-45.4 206.3-93.8 21.3-21.2 48.7-27.2 67-12l182 157.3c27.3 24.2 42.5 54.5 21.2 84.8zM10762.7 3032c139.5 0 245.7-105.9 245.7-242.1 0-139.2-106.2-248.2-245.7-248.2-139.7 0-242.8 109-242.8 248.2 0 136.2 103.1 242.1 242.8 242.1z" class="fil0"/><path d="M325.7 1487.6h288.6L469.6 980.8l-143.9 506.8zM0 1916.2l341.8-1133h266.3l341 1133h-213L666 1668.4H274.8l-72.5 247.8H0zm950.5-255.6 193-85.7c29.8 60.3 63.3 104.2 100 131.7 36.8 27.5 80.2 41.3 130.6 41.3 56.9 0 101.8-13 134.8-38.7 33-26 49.4-60.8 49.4-105a117 117 0 0 0-36.7-87.8c-24.4-23.6-68.3-47-131.6-70.3-8.6-3.7-21-8-37.2-13.8-111-40.5-188.3-75-232-103.4a281.2 281.2 0 0 1-98.7-105.2A301.3 301.3 0 0 1 988 1079c0-91.4 34-165.4 102.3-222.6 68-57.1 157.1-85.7 267.3-85.7 96 0 176.3 20.8 240.5 62.3 64.2 41.6 111.2 103.4 141 185l-193 70.6c-23.8-50.6-51.9-87.2-84.4-110.4-32.4-23-72.7-34.5-120.2-34.5-46.3 0-82.9 10.6-109.4 32.2-26.7 21.6-40 51-40 88 0 57.2 65.2 111.5 195.6 162.7 40.3 15.8 71.7 28.5 94.5 38.1 109.1 46.3 183.4 93.3 223 141.6 39.1 48.3 58.9 111.2 58.9 188.8 0 104.7-34.3 186.8-102.9 246.8-68.3 60-162.6 89.9-282 89.9-104.2 0-192.3-22.9-264.8-68.6-72.2-45.7-126.7-113.3-163.9-202.6zm1155.9-173h288.5l-144.6-506.8-144 506.8zm-325.8 428.6 341.9-1133h266.2l341 1133h-213l-70-247.8h-391.2l-72.5 247.8h-202.4zm1034.6 0v-1133h305l163.6 550.1c15.3 49.1 28 97.5 38.5 144.7 10.4 47 18.4 93 24.1 137.7 9.1-42.1 19.5-85.5 31.2-129.9 11.7-44.4 26-94 42.6-149.3l166.7-553.3h292.8v1133h-182.4V965.8a3606.5 3606.5 0 0 1-67 250.4l-207 700h-156l-201.1-700c-20.8-73-35.6-126.5-44.7-160.3-8.9-33.7-16.4-63.6-22.4-90.1v950.4h-183.9zm1472.6-679.5h174c66.5 0 116.1-11.7 149.1-35 33-23.2 49.4-58.2 49.4-105 0-48.6-16.4-83.9-49.4-106-33-22-86.7-33-161.3-33h-161.8v279zm0 505h174c77.4 0 133.5-13.5 168.8-40.8 35.4-27 53-70.2 53-129.4 0-55.3-17.4-96.6-52.2-123.9-34.8-27.3-88-41-159.7-41h-184v335zm-208.9 174.5v-1133h411.2c123.7 0 218.2 25.7 283.1 76.9 65 51.1 97.5 125.7 97.5 223.6 0 54.8-13.3 101.6-40 139.8-26.5 38.4-68.4 71.4-125 99.2 64 21.8 111.7 55.8 143.7 101.5 32 46 47.8 104 47.8 174 0 107-34.3 186.8-103.2 239.3-68.8 52.5-173.5 78.7-314.5 78.7h-400.6zm987.9 0v-1133h216.6V1723h478.5v193.2zm812.8 0v-1133h735.6v183.9h-523.7v268h381.9v180.8h-381.9V1723h547.1v193.2zM6970 1487.6h288.6L7114 980.8l-144 506.8zm-325.7 428.6 341.8-1133h266.3l341 1133h-213l-70-247.8H6919l-72.4 247.8h-202.4zm950.5-255.6 193-85.7c29.8 60.3 63.3 104.2 100 131.7 36.9 27.5 80.2 41.3 130.6 41.3 56.9 0 101.9-13 134.8-38.7 33-26 49.4-60.8 49.4-105a117 117 0 0 0-36.6-87.8c-24.5-23.6-68.4-47-131.7-70.3-8.6-3.7-21-8-37.2-13.8-110.9-40.5-188.3-75-232-103.4a281.2 281.2 0 0 1-98.6-105.2 301.3 301.3 0 0 1-34.3-144.7c0-91.4 34-165.4 102.3-222.6 68-57.1 157.2-85.7 267.3-85.7 96.1 0 176.4 20.8 240.5 62.3 64.2 41.6 111.2 103.4 141 185l-193 70.6c-23.8-50.6-51.9-87.2-84.3-110.4-32.5-23-72.8-34.5-120.3-34.5-46.2 0-82.9 10.6-109.4 32.2-26.7 21.6-40 51-40 88 0 57.2 65.2 111.5 195.6 162.7 40.3 15.8 71.7 28.5 94.6 38.1 109 46.3 183.4 93.3 222.8 141.6 39.3 48.3 59 111.2 59 188.8 0 104.7-34.3 186.8-102.9 246.8-68.3 60-162.6 89.9-282 89.9-104.2 0-192.3-22.9-264.7-68.6-72.2-45.7-126.8-113.3-164-202.6zM5620.3 2859H5918c0-54.3-13.3-96.9-39.5-127.2-26.2-30.4-62.6-45.8-108.6-45.8-43.6 0-78.4 15.1-104.4 45.5-26.2 30.1-41.3 72.7-45.2 127.5zm478.5 353.6c-31 57.9-74 101.8-129.4 131.7-55.3 29.8-120.8 44.6-196.1 44.6-109.1 0-194-37.1-255-111.2-60.8-74-91.2-177.6-91.2-311.1 0-133.5 30.3-237.7 90.9-312.8 60.8-75 144.7-112.7 252.2-112.7 107 0 190.1 36.4 249.3 108.8 59 72.5 88.6 174.6 88.6 306 0 4.4-.2 11.5-.8 20.8-.5 9.6-.7 16.4-.7 21l-489.4.8c1 77 15.8 134.6 45 173.3 28.8 38.7 71.6 58.2 128.2 58.2 35.6 0 66.3-8.4 92.5-24.7 26-16.4 50.7-42.9 74-79.8l141.9 87zm108.8 160.7v-816.6h178v96.9c50.9-41 95.3-70.1 133.7-87a290.1 290.1 0 0 1 118.5-25.5c76 0 133.2 22.4 171.7 67 38.1 44.4 57.3 110.7 57.3 198.5v566.8h-193.2v-529.7c0-52.7-7-90.1-21.3-112.2-14.3-22-38.2-33-71.7-33a196 196 0 0 0-87.3 22.1 401.5 401.5 0 0 0-94 68.6v584.2h-191.7zM7581.2 2859H7879c0-54.3-13.3-96.9-39.5-127.2-26.2-30.4-62.6-45.8-108.6-45.8-43.6 0-78.4 15.1-104.4 45.5-26.2 30.1-41.3 72.7-45.2 127.5zm478.5 353.6c-31 57.9-74 101.8-129.4 131.7-55.3 29.8-120.8 44.6-196 44.6-109.2 0-194.1-37.1-255.1-111.2-60.8-74-91.2-177.6-91.2-311.1 0-133.5 30.4-237.7 90.9-312.8 60.8-75 144.7-112.7 252.2-112.7 107 0 190.1 36.4 249.4 108.8 59 72.5 88.5 174.6 88.5 306 0 4.4-.2 11.5-.7 20.8-.6 9.6-.8 16.4-.8 21l-489.4.8c1 77 15.9 134.6 45 173.3 28.8 38.7 71.6 58.2 128.3 58.2 35.6 0 66.2-8.4 92.5-24.7 26-16.4 50.6-42.9 74-79.8l141.8 87zm110.4 160.7v-1133h193.3v1133z" fill="currentColor"/></svg>